<svg id="Geometric_shape" data-name="Geometric shape" xmlns="http://www.w3.org/2000/svg" viewBox="0 0 1500 1500"><g id="Shape_92" data-name="Shape 92"><path fill="#4376EC" d="M856.13,1136.19l-65-10.41-28.5-342.14-21.42,325.78L687.73,1081l65.06-298.77-102.72,270.3-37.7-40.71L743.76,778,589.18,976.9,569.4,930.43l1.26-1.19,165.7-157.91L560.69,894.78l-2.08-45.67,1.46-.72,171.18-85.62-168.91,55,13.27-39,148.89-25-527.88-1.33L223,666.63l2.13.32,504.45,75.6-473-145L305,528.36l1.91.92,426.3,204L354.46,476.89l63.21-47.47,1.53,1.41L739.38,725.44l-263.46-327,69.84-23.59L747.59,719.78,605.47,364.62l68.42-.25L757.1,716.78l-28.65-344,59.92,20-21.3,323.85,65.5-300.77,46,35.34-102,268.27L909.16,483.69,938,528.12,784.94,725.05,953.82,564.11,964.58,611,791.26,732.76,966.7,645l-6,43-1.48.48L795.05,742,951,715.83l-13.12,38.53L806.09,754l497.65,74.59-38.23,78.28L793.72,762.22l429.43,205.49-56.82,58.75L788.75,770.88l322.79,297L1044,1103.51,781.47,777.69,984.11,1124,914,1135.69,772.52,782.08Zm-79-356,140,349.87,59-9.83Zm18.67,341.24,53.72,8.61-81.9-346.85Zm-102.41-43.08,43.35,23,20.91-318.07Zm92-303.83,259.92,322.62,57.65-30.4ZM618.51,1011.12l29.75,32.11,99.86-262.76Zm173-244.38L1165.65,1020l49.08-50.75ZM575.36,931.66l15.09,35.46L739.81,775ZM795.18,757.45l467.71,143.41,33.37-68.32ZM563.76,852.13l1.51,33.32L733.49,767.24Zm15.63-68.89L570.29,810,729.7,758ZM783.64,749l150.64.38,9.25-27.21Zm-580.26-1.46,534.47,1.34L226.51,672.21Zm61.2-152.77L731,737.77,306.65,534.7Zm695.85,59L793.5,737.23l162.67-53ZM363.07,476.68,736,729.12,417.35,435.92Zm587.84,97.11L788.39,728.67,959,608.81ZM484.31,400.88l259,321.43L543.5,380.89Zm425.15,92.47L781,722,931.87,527.86ZM612.84,369.6,752.23,717.93l-82.3-348.55Zm222.94,55.09L772,717.75,872.59,453ZM734.06,380l28,336.41,21-320Z"/></g></svg>
