<svg id="Layer_1" data-name="Layer 1" xmlns="http://www.w3.org/2000/svg" viewBox="0 0 704.3 536.42"><g id="Laptop"><path fill="#263167" d="M417,518.65c-.1-1.78-.22-3.33-.26-4.88a83.63,83.63,0,0,1,2.76-21.91c3.56-14.89,7.67-29.65,11.58-44.45q25.57-96.75,51.17-193.47c.75-2.82,1.63-5.62,2.56-8.4,3-9.13,12.49-15.3,23.49-13.41,21.26,3.65,42.64,6.58,64,9.82q32.82,5,65.65,10,29.12,4.41,58.24,8.79t58.24,8.85q27.72,4.2,55.46,8.39c8.65,1.32,17.35,2.42,25.91,4.16,11.07,2.24,17.46,10.76,16.25,21.94-.68,6.23-2.44,12.36-4,18.46q-32.94,128.06-66.09,256.07c-3.61,13.87-4.28,27.74-3.62,41.85.12,2.63.16,5.45-1.62,7.32-2.09,2.2-1.92,4.74-2.45,7.27-2.09,10.08-7.21,18.16-16.07,23.64A17.67,17.67,0,0,1,749,661h-2.81c1.19,4.9-.48,8.41-5.17,10.12-3.57,1.3-7.31,2.14-11,3.12-9.35,2.48-18.5,5.43-26.37,11.32a62.83,62.83,0,0,0-5.52,4.8,39.74,39.74,0,0,1-11.23,7.68c-26.91,12-53.8,24-80.79,35.74a30.8,30.8,0,0,1-10.6,2.08c-11.61.59-22.44,3.78-33.07,8.35-15.38,6.64-31,12.86-46.49,19.13a108,108,0,0,1-12.1,3.92c-6.18,1.68-12.3.88-18.25-1.22q-33.84-12-67.65-24-121.57-43.47-243.13-87c-11.15-4-20.13-10.76-25.52-21.41-2.63-5.2-2-12.79,4.58-16.27,5.8-3.06,12-4.9,18.17-7q94.7-32,189.4-63.94c8.26-2.78,14.82-8,20.59-14.26,2.62-2.86,5.09-5.85,7.62-8.79a24.16,24.16,0,0,1,8.58-6.56,15.23,15.23,0,0,1,10.62-.46C411.5,517.15,414.14,517.86,417,518.65ZM769.93,617c-.22-3.26-.66-6.36-.59-9.45a139.53,139.53,0,0,1,4.8-32.54c7.07-27,14-54,20.92-81q23.82-92.43,47.57-184.87a44.07,44.07,0,0,0,1.24-9.65c.2-7.43-3.26-12.08-10.52-13.63-7.69-1.65-15.47-2.89-23.25-4.1-16.93-2.64-33.88-5.15-50.82-7.72l-55.82-8.46-51-7.73-48.23-7.3-48.41-7.33c-16.69-2.52-33.41-4.92-50.07-7.61-7.37-1.18-14.83,4.05-16.7,9.44-1,2.83-2.08,5.63-2.85,8.52-4,14.92-7.92,29.85-11.86,44.78Q449.16,393.68,424,489c-2.46,9.37-4.27,18.91-3.36,28.74.16,1.65.79,2.16,2.25,2.55,10.58,2.79,21.13,5.65,31.69,8.51l91,24.72,137,37.23q17.19,4.68,34.39,9.32c13.76,3.73,27.53,7.43,41.26,11.24a57.4,57.4,0,0,1,8.16,3.08A19.89,19.89,0,0,1,769.93,617ZM358.64,559c-1.24-.37-1.93-.59-2.63-.79-2.51-.75-5.09-1.34-7.52-2.3a4.15,4.15,0,0,0-3.15-.07q-86.52,29.23-173,58.46c-5.67,1.92-11.22,4.23-16.72,6.59-1.16.49-1.87,2-2.79,3.06,1,.78,2,1.57,3,2.34a1.72,1.72,0,0,0,.52.21q46.91,16.42,93.81,32.84c8.21,2.87,16.51,5.48,23.86,10.32a16.73,16.73,0,0,0,3.44,1.89q19.05,6.9,38.14,13.67c6.1,2.16,12.06,4.53,18.69,5.19,5.26.53,10.44,2.47,15.51,4.2q61,20.83,121.87,41.8A48.54,48.54,0,0,0,482,739.11a69,69,0,0,0,35.31-5.56q88.15-38.1,176.44-75.9c.56-.24,1.1-.53,2-.95-4.89-1.42-9.48-2.64-14-4.13a8.81,8.81,0,0,0-6.63.36q-60.14,25.41-120.3,50.75c-2.71,1.14-5.17,2.14-7.84.16a3.45,3.45,0,0,0-.89-.3L444.72,671.19,237.06,604.87a5,5,0,0,1-1.74-.65,2.76,2.76,0,0,1-1.09-1.75c0-.56.71-1.24,1.28-1.57a15.92,15.92,0,0,1,2.79-1.07L352.52,561.1C354.39,560.47,356.24,559.82,358.64,559Zm395.75,55.23c-.81-.82-2.91-1-4-1.25l-4.67-1.27-9.36-2.53c-6.08-1.64-12.15-3.3-18.21-5-2.39-.68-5.16-2-7.7-1.46-2.36.47-4,2.36-5.52,4.09a36.77,36.77,0,0,0-4.57,6.55,36.15,36.15,0,0,0-1.55,3.27c-.48,1.16-1.66,3.2-1.55,4.44,1.06.82,3.2,1,4.48,1.37l3.68,1,9.07,2.5c2.67.73,5.34,1.42,8,2.14a4.26,4.26,0,0,1,2.33,1,1.83,1.83,0,0,1-.59,2.68c-1.58.79-4.65-.65-6.18-1q-4.26-1.12-8.51-2.3c-2.77-.76-5.54-1.53-8.32-2.28-1.31-.35-2.65-.81-4-1-1.62-.27-1.84.39-3.11,1.18-2,1.27-4.26.78-6.43.18l-8.43-2.31-17.77-4.87-34.61-9.48q-69.84-19.11-139.67-38.24l-39.41-10.81-19.7-5.41c-3.14-.86-6.28-1.71-9.41-2.58-1-.27-2.39-.61-3-1.59-.72-1.23.56-1.8.8-2.95a4.77,4.77,0,0,0-2.05-.74l-3.19-.94-5.9-1.72c-3.61-1.06-7.22-2.15-10.85-3.18-1.2-.34-2.59-.57-3.1-1.89s.48-2.16,1.79-2.22c1.58-.08,3.64.92,5.12,1.35l5.4,1.58c3.58,1,7.15,2.11,10.73,3.15l2.91.83c.69.2,1.84.86,2.54.7,1-.24,1.44-3.07,1.83-4.07a32.89,32.89,0,0,1,4-7.59,30.54,30.54,0,0,1,2.78-3.32,24.55,24.55,0,0,1,1.89-1.79c.59-.51,1.52-.92,1.86-1.64a12.92,12.92,0,0,0-3.48-1l-2.75-.74-6.36-1.71c-4.18-1.11-8.34-2.29-12.53-3.32-8.14-2-13.19,4.11-17.95,9.66s-9.93,11.14-16.1,15.31a41.65,41.65,0,0,1-9.55,4.84c-3.22,1.11-7.17,1.59-9.89,3.6,5.53,3.16,13.42,4.27,19.6,6,7.06,2,14.14,4,21.2,6.07l42.13,12.23L520,601.86Q603.36,626,686.7,650.11l11.6,3.34c1.69.49,2.82,1,4.47.27l5.68-2.42c6.58-2.8,13.95-5.17,19.56-9.72,5-4,8.39-9.35,12.22-14.38a58.71,58.71,0,0,1,6.23-7.13,37.66,37.66,0,0,1,3.49-3c.63-.47,1.26-.91,1.92-1.33A10.8,10.8,0,0,0,754.39,614.21Zm-81.1-22.15c-1-.31-1.63-.54-2.29-.72l-47.06-12.77Q547.11,557.7,470.3,536.8a7.52,7.52,0,0,0-5.8.53c-7.26,3.89-10.93,10.19-12,18.16-.35,2.54-.21,2.65,2.29,3.33l197.62,54.1c2.32.64,4.65,1.24,7,1.88C661.87,605.86,665.66,598,673.29,592.06Zm17.64,99.58c1.63-1.38,3-2.41,4.25-3.64a51.71,51.71,0,0,1,20.41-13c7.09-2.4,14.36-4.27,21.54-6.44a16.2,16.2,0,0,0,4.25-1.88c1.86-1.26,2.06-3.28.55-4.6a13.29,13.29,0,0,0-3.71-2.45c-3-1.19-6.13-2.14-9.22-3.13a11.38,11.38,0,0,0-7.9.39c-2,.79-3.92,1.58-5.86,2.43L563,726.47c-14.18,6.26-28.44,12.35-42.52,18.84a73.84,73.84,0,0,1-22.62,6.28c-11,1.28-21.64-.57-32.05-4.3q-58.79-21.07-117.62-42a46.92,46.92,0,0,0-12.71-3,34.73,34.73,0,0,1-8.64-1.39c-16.63-5.65-33.2-11.48-49.77-17.29a24.18,24.18,0,0,1-4.22-2c-4.37-2.62-8.29-5.89-13.28-7.61-33.67-11.65-67.28-23.49-100.91-35.26-.54-.19-1.1-.3-1.92-.53a7.29,7.29,0,0,0,.55.94c.36.43.74.85,1.13,1.25A46,46,0,0,0,176,651.55q131.81,47.15,263.59,94.3c16,5.72,32,11.43,48.07,17a26,26,0,0,0,17,.37c4-1.33,8.09-2.61,12-4.19,13.92-5.61,27.76-11.42,41.68-17,6.66-2.67,13.41-5.13,20.19-7.48a51.69,51.69,0,0,1,7.27-1.46c-.33-3.33-.6-6.48-1-9.63a6.27,6.27,0,0,1,4.11-7c5.86-2.52,11.75-5,17.68-7.3,2.6-1,4.8.51,5,3.33.17,2.61,0,5.26.26,7.87.27,3-1.35,4.65-3.82,5.76-3.71,1.66-7.44,3.27-11.16,4.91-.71.32-1.41.67-2.12,1,9.71.15,17.41-5.38,25.92-8.55a12,12,0,0,1-.63-2.14c-.37-4.36-.75-8.72-1-13.09-.22-3.94,1-5.84,4.68-7.44q6.79-3,13.62-5.83c5.48-2.28,7.17-.86,6.8,5.17-.26,4.21,0,8.45,0,12.87l20.69-9.17c-.8-4.18-1.52-8.17-2.35-12.14-1.12-5.34-.47-7.31,4.51-9.62,7-3.23,14.1-6.11,21.22-9,2.36-1,4.18.26,4.57,2.82a10.11,10.11,0,0,1,0,2.8C692.24,682.8,691.62,686.93,690.93,691.64ZM446.37,655.06c-.54-.24-.7-.33-.87-.39q-50.91-16.23-101.83-32.42a4.16,4.16,0,0,0-2.66.24c-4.6,2-9.16,4-13.73,6a14.65,14.65,0,0,0-1.37.81L431.42,663a20.48,20.48,0,0,1,2.94-2.26C438.22,658.87,442.13,657.07,446.37,655.06Zm259.18-54.25c-.67-.22-1.11-.39-1.57-.51-7.29-2-14.65-3.77-21.86-6a7.51,7.51,0,0,0-7.71,1.7c-6.17,5.15-9.35,12-11.37,19.8,1.43.41,2.73.79,4,1.15,7.53,2.07,15.07,4.1,22.58,6.21,1.81.51,2.89.09,3.39-1.77.22-.84.6-1.63.89-2.46a43.59,43.59,0,0,1,8.72-15.17C703.54,602.78,704.49,601.89,705.55,600.81Zm-244-66.35c-6.8-1.81-13.22-3.39-19.55-5.28a6.76,6.76,0,0,0-6.46,1.18,25.22,25.22,0,0,0-9.91,15.82,4.51,4.51,0,0,0,3.09,5.46c6.53,1.89,13.1,3.62,19.83,5.46A28.66,28.66,0,0,1,461.57,534.46ZM613.31,675a8.86,8.86,0,0,0-.8-.4q-18.63-5.67-37.28-11.32a2.18,2.18,0,0,0-1.38.09c-4.35,1.9-8.68,3.84-13,5.78-.53.23-1,.52-1.59.81.24.23.31.35.42.39q18.24,5.67,36.5,11.32a2.26,2.26,0,0,0,1.43-.06C602.73,679.46,607.84,677.29,613.31,675ZM847.56,297.16c0,1.19.05,2.38,0,3.56-.26,6-1.84,11.69-3.33,17.45q-30.84,119.31-61.52,238.65c-3.2,12.44-7.05,24.74-8.7,37.57-1.12,8.74-1.36,17.4.45,26.31,0-1.19,0-2.13,0-3.07a137,137,0,0,1,4.08-40.87c16.88-64.34,33.33-128.79,49.93-193.2q9.62-37.32,19.23-74.64A19.74,19.74,0,0,0,847.56,297.16ZM610.58,656c.3.25.38.37.49.4q13.08,3.93,26.18,7.84a2.31,2.31,0,0,0,1.44.08c5-2.06,10-4.18,15.34-6.43-.92-.33-1.48-.56-2.06-.73-8.2-2.43-16.42-4.8-24.6-7.29a6,6,0,0,0-5.23.42C618.46,652.31,614.57,654,610.58,656Zm-59.33,28.53c6.16,2,11.88,3.56,17.43,5.62a11.39,11.39,0,0,0,9.93-.41c4-2.07,8.33-3.6,12.94-5.55-1.18-.39-1.93-.65-2.69-.88-6.13-1.9-12.35-3.57-18.38-5.77a8.46,8.46,0,0,0-8.43.87C558.75,680.55,555.15,682.3,551.25,684.48ZM568.11,694c-.27-.22-.39-.39-.55-.44-7.79-2.49-15.58-5-23.39-7.44a2,2,0,0,0-1.37.18c-2.41,1.32-4.78,2.71-7.18,4.07l-6.32,3.54c.21.27.26.42.36.45q10.44,3.33,20.9,6.63a1.64,1.64,0,0,0,1.05-.06C557.09,698.67,562.55,696.36,568.11,694Zm121.14-17.34c-.81.28-1.27.41-1.72.59-4,1.64-8,3.24-11.93,5-2.86,1.25-5.71,2.54-8.44,4a3.2,3.2,0,0,0-1.43,2.5c.49,3.55,1.29,7.07,2,10.84C674,697,680,694.46,686,691.85a2.4,2.4,0,0,0,1.09-1.53c.54-2.25,1-4.52,1.36-6.8S689,679.14,689.25,676.68Zm-150.5,7.71c-6-1.92-11.57-3.43-16.9-5.49a9.58,9.58,0,0,0-9.6.9c-3.15,2.07-6.63,3.66-10.44,5.71l23.27,7.43a20.11,20.11,0,0,1,2.75-2.43C531.27,688.5,534.78,686.6,538.75,684.39ZM267.83,593.72l-.06.41,27.14,8.64a26.18,26.18,0,0,1,3.11-1.9c2.65-1.1,5.35-2.08,8-3.12.75-.29,1.49-.62,2.47-1-.5-.23-.67-.32-.84-.38q-12-3.83-24.08-7.64a1.89,1.89,0,0,0-1.08,0C277.62,590.38,272.72,592.06,267.83,593.72Zm292.89,81.07c-.17-.15-.25-.27-.36-.31-6.49-2-13-4.05-19.5-6a1.75,1.75,0,0,0-1.21.11c-4.52,2.29-9,4.62-13.52,6.92a5.26,5.26,0,0,1-1,.28l.47.56,21.53,6.85C551.4,679.5,556.43,677.75,560.72,674.79ZM511.58,676c-.25-.22-.32-.34-.43-.38-5.88-1.89-11.75-3.79-17.65-5.63a2.38,2.38,0,0,0-1.55.24c-3,1.45-6.06,3-9.08,4.45l-5.86,2.9,20.92,6.68a29.41,29.41,0,0,1,3.27-2.6C504.6,679.73,508.07,677.91,511.58,676ZM640,698c.1,0-.1-.06-.26,0q-7.68,3.27-15.34,6.57a2.72,2.72,0,0,0-1.67,3q.38,4.58.76,9.16c.07.89.17,1.79.27,2.78,4.42-2,8.53-4,12.78-5.59,2.52-1,3.82-2.12,3.54-5.1C639.77,705.32,640,701.68,640,698Zm-59.3-50.74a34.29,34.29,0,0,1,3.64-2.37c3.32-1.54,6.69-3,10.5-4.64-7-2-13.44-4-19.92-5.81a3.6,3.6,0,0,0-2.14.38c-3.4,1.41-6.78,2.88-10.16,4.34L559,640.77Zm-53,1.54c-6.62-2-12.64-3.87-18.69-5.66a2.88,2.88,0,0,0-1.79.22c-4.5,1.88-9,3.82-13.46,5.75a5,5,0,0,0-.77.6L513.41,656c1.58-2.57,4.36-2.77,6.6-3.88S524.81,650.06,527.74,648.82Zm-50.68,12c2.31-1.22,4.13-2.23,6-3.15,2.88-1.41,5.79-2.76,9.08-4.32-3.38-1-6.29-2-9.21-2.84s-5.9-2.58-8.77-2.41-5.75,2.17-8.61,3.41c-2.32,1-4.61,2.07-7.33,3.3Zm108.85-12.51,0,.52,20.06,6a31.77,31.77,0,0,1,3.35-2.39c3.18-1.63,6.41-3.15,10.06-4.94-6.5-1.92-12.46-3.69-18.42-5.44a1.72,1.72,0,0,0-1.1,0C595.22,644.14,590.57,646.24,585.91,648.32Zm-117.9-2-.05-.45c-5.77-1.79-11.53-3.59-17.31-5.35a2,2,0,0,0-1.24.15c-2.92,1.26-5.82,2.58-8.74,3.85-1.91.84-3.84,1.63-6.29,2.67l19.73,6.3c1.7-2.41,4.46-2.78,6.75-3.94S465.62,647.42,468,646.35Zm52.77,28.41a32.25,32.25,0,0,1,3.27-2.32c3.56-1.88,7.18-3.67,10.94-5.57a3.88,3.88,0,0,0-.68-.46c-5.13-1.6-10.25-3.23-15.4-4.74a3.8,3.8,0,0,0-2.46.36c-3.21,1.55-6.37,3.21-9.54,4.84-1.24.64-2.47,1.3-4.1,2.16Zm-42.06-40.84c-6.62-2-12.68-3.85-18.75-5.67a1.43,1.43,0,0,0-.89.07c-4.74,2-9.46,4.11-14.67,6.37l19.88,6.15a37.15,37.15,0,0,1,3.86-2.39C471.47,637,474.85,635.57,478.72,633.92Zm23.62,7.39a2.89,2.89,0,0,0-.58-.4q-8.34-2.53-16.69-5a2,2,0,0,0-1.25-.09c-4.89,2.05-9.76,4.15-15.09,6.43l19.35,6C492.61,644.94,497.73,643.84,502.34,641.31Zm-225.54-40-.06-.42c-4.63-1.48-9.24-3-13.9-4.37a5.73,5.73,0,0,0-3.23,0c-5.3,1.69-10.55,3.51-15.81,5.3-.44.15-.85.37-1.69.74,6.13,1.95,11.82,3.77,17.52,5.56a1.47,1.47,0,0,0,1-.25,29.47,29.47,0,0,1,2.89-1.62C267.9,604.57,272.35,603,276.8,601.3Zm291.53,31.2c-.8-.26-1.42-.48-2.05-.66-3.12-.92-6.37-1.53-9.33-2.81a14.33,14.33,0,0,0-14,.82c-2.43,1.44-5.21,2.31-8.28,3.63L555,639.55C559,635.74,564.08,635.19,568.33,632.5Zm-123.76,6.16c-5.76-1.78-11.29-3.53-16.84-5.18a3.57,3.57,0,0,0-2.14.27c-3.71,1.48-7.39,3-11.07,4.58-1,.42-2,.88-3.38,1.49L430.47,646C434.57,642,440,641.45,444.57,638.66Zm-23.59-7c-.36-.27-.49-.42-.66-.47-5.37-1.67-10.74-3.34-16.12-5a2.65,2.65,0,0,0-1.62,0c-4.79,2-9.55,4-14.79,6.21l19.08,6.09a28.75,28.75,0,0,1,3.68-2.45C413.94,634.49,417.4,633.12,421,631.63Zm14.52,32.7,16.67,5.33a29.86,29.86,0,0,1,3.21-2.15c2.76-1.33,5.58-2.54,8.37-3.8,1.22-.56,2.42-1.14,4.09-1.92-4.3-1.37-8.17-2.37-11.85-3.85a8.88,8.88,0,0,0-8.27.51C443.91,660.56,439.87,662.26,435.5,664.33Zm75.09-38.07,20.16,6a17,17,0,0,1,2.8-2.32c2.3-1.12,4.69-2.06,7-3.07,1-.45,2.09-.92,3.6-1.58-6.26-1.83-11.94-3.51-17.63-5.16a2,2,0,0,0-1.25,0C520.57,622.08,515.86,624.06,510.59,626.26Zm-56.88.07c-5.2-1.59-10.17-3-15.1-4.64a6.2,6.2,0,0,0-4.83.28c-3.64,1.65-7.37,3.1-11,4.65-.49.2-1,.47-1.7.85l19.59,6C444.33,629.47,449.58,629.14,453.71,626.33Zm-149.41-4c1,.38,1.47.6,2,.76l12.84,4.12c1.32.42,2.65,1.15,3.66-.63.23-.41,1-.54,1.47-.77l10.95-4.87c.46-.21.89-.49,1.63-.9-4.18-1.34-8-2.45-11.78-3.79a6.91,6.91,0,0,0-5.63.11C314.63,618.47,309.69,620.23,304.3,622.32Zm183.22-3.41,0,.41,18.17,5.45c1.95-1,3.25-1.81,4.63-2.4,3.11-1.35,6.26-2.6,9.39-3.89-5.78-2.09-11.51-3.78-17.25-5.43a2.11,2.11,0,0,0-1.28.13Q494.32,616,487.52,618.91Zm-2.45,12.62V632L506,638.33a27.73,27.73,0,0,1,3.25-2c1.94-.86,4-1.55,5.93-2.34,1-.38,1.93-.82,3.33-1.42-5.65-1.71-10.82-3.13-15.89-4.85a10.42,10.42,0,0,0-8.42.27C491.28,629.38,488.13,630.36,485.07,631.53Zm2.7,36.6c-5-1.6-9.5-3-14-4.42a2.16,2.16,0,0,0-1.4,0c-4.76,2.16-9.51,4.37-14.26,6.58-.4.19-.77.45-1.41.82l16.18,5.17a25.23,25.23,0,0,1,3.16-2.39C479.78,672,483.53,670.21,487.77,668.13Zm24.74-8.46c-5-1.56-9.7-3.06-14.42-4.43a3.44,3.44,0,0,0-2.1.42c-4.07,1.89-8.12,3.84-12.18,5.77-.52.25-1,.53-1.86,1l16.45,5.23C502.86,664.18,507.88,662.63,512.51,659.67Zm120,7.25a5,5,0,0,0-.81-.5q-8.88-2.67-17.77-5.3a2.26,2.26,0,0,0-1.43-.12c-3.76,1.91-7.47,3.9-11.65,6.1,4.74,1.45,9,2.7,13.16,4.06a34.76,34.76,0,0,1,4,1.88ZM417.33,626.33c3.33-4.41,8.91-4.23,12.84-7.16-5.42-1.64-10.67-3.25-15.93-4.82a2,2,0,0,0-1.24,0c-3.93,1.55-7.86,3.14-11.78,4.73-.92.37-1.83.76-3.11,1.29Zm-20-2.26c-2.1-.66-4-1.29-6-1.88-3.29-1-6.6-2.85-9.86-2.74s-6.57,2.13-9.84,3.34c-2,.72-3.91,1.48-6.36,2.41l18.76,6C387.76,627.09,393.11,626.85,397.3,624.07ZM296.88,607.51A5.71,5.71,0,0,0,296,607c-4-1.28-8-2.58-12-3.78a3.55,3.55,0,0,0-2.13.14c-5.11,1.85-10.2,3.76-15.29,5.67-.49.18-.95.43-1.75.79l16,5.12a23.81,23.81,0,0,1,3.32-2.25C288.31,611,292.47,609.31,296.88,607.51Zm241,56.06,13.25,4.13c1.78.56,3.59,1.53,5.14-.52.23-.3.78-.37,1.18-.55l10.1-4.45a15.11,15.11,0,0,0,1.43-.84c-4.13-1.26-8-2.28-11.73-3.63a8.5,8.5,0,0,0-7.42.42C546.08,660.09,542.13,661.66,537.87,663.57Zm-42-52.19c-.3-.25-.42-.43-.58-.48-5.21-1.54-10.41-3.09-15.63-4.58a2.78,2.78,0,0,0-1.56.23c-1,.36-1.93.86-2.92,1.24-3.65,1.41-7.3,2.79-11,4.2.22.25.28.39.39.42,5.79,1.75,11.58,3.51,17.39,5.21a1.81,1.81,0,0,0,1.22-.31,26.47,26.47,0,0,1,2.47-1.59C489,614.23,492.36,612.85,495.85,611.38Zm14.86,28.37,20,6a1.22,1.22,0,0,0,.86-.07c1.86-1,3.67-2,5.55-3s3.78-1.75,6.12-2.82c-6.51-1.95-12.48-3.74-18.46-5.5a2.33,2.33,0,0,0-1.37.14c-1.1.43-2.15,1-3.24,1.43C517.18,637.2,514.19,638.37,510.71,639.75Zm-92.38-41.57,0,.43c5.73,1.71,11.45,3.44,17.19,5.12a2.09,2.09,0,0,0,1.31-.2c.88-.43,1.68-1.07,2.58-1.45,3.41-1.44,6.86-2.82,10.45-4.28-.34-.26-.47-.42-.63-.47q-7.8-2.31-15.62-4.58a2.36,2.36,0,0,0-1.43-.09C427.57,594.47,423,596.33,418.33,598.18ZM361.43,624l0-.48a16.68,16.68,0,0,1,2.82-1.85c3.57-1.45,7.19-2.76,11.29-4.32-3.9-1.2-7.38-2-10.62-3.35a13.39,13.39,0,0,0-12,.36c-3,1.48-6.22,2.42-9.85,3.79Zm80.2-18.82,0,.44,16.45,4.91a1.39,1.39,0,0,0,.88,0c2-.89,3.89-1.89,5.89-2.72,2.65-1.09,5.36-2.06,8.56-3.28-6-1.77-11.43-3.37-16.87-4.94a2.08,2.08,0,0,0-1.28.07C450.73,601.43,446.19,603.3,441.63,605.16Zm-33.69,7.27c-3.66-1.11-7.14-1.91-10.4-3.24a13.13,13.13,0,0,0-11.44.4c-3.1,1.53-6.46,2.54-10.15,3.95l17.12,5.29C397.9,615.71,403.11,614.86,407.94,612.43Zm128,35c6.5,2,12.52,3.83,18.55,5.64a1.55,1.55,0,0,0,1.14-.2c1.13-.71,2.14-1.64,3.32-2.24,2.4-1.22,4.88-2.29,7.74-3.62-6.18-1.86-11.84-3.58-17.52-5.26a1.7,1.7,0,0,0-1.07,0C544.17,643.53,540.28,645.36,535.91,647.39ZM385.31,606l0-.4c-3.64-1.12-7.33-2.08-10.89-3.39a11,11,0,0,0-9.13.24,82.76,82.76,0,0,1-7.9,2.9l-3.06,1.14,0,.41,17.05,5.27a23.08,23.08,0,0,1,3.25-2.09C378.2,608.62,381.76,607.32,385.31,606Zm148.48,56.38a22.78,22.78,0,0,1,3.23-2.42c3.46-1.66,7-3.18,10.93-5a74.29,74.29,0,0,1-7.9-2.49,13.7,13.7,0,0,0-13.27.71c-2.77,1.57-5.86,2.57-9.35,4ZM339.53,617l-.06-.59a18.09,18.09,0,0,1,2.93-1.9c3.35-1.38,6.76-2.61,10.15-3.89-5-2-10-3.5-15-5a1.85,1.85,0,0,0-1.07.15c-2.65.92-5.29,1.88-7.93,2.82L321.79,611l0,.39Zm-23-3.43c-4.66-1.49-8.86-2.85-13.08-4.18a2.07,2.07,0,0,0-1.28,0c-5.48,2.22-10.95,4.46-16.52,6.74.26.24.37.43.52.48,4.34,1.4,8.67,2.8,13,4.15a1.6,1.6,0,0,0,1.17-.15,35.77,35.77,0,0,1,3.6-2.13C307.94,616.84,312,615.31,316.49,613.56Zm25.67-20.73,0-.38a59.61,59.61,0,0,1-7.75-2.43c-5.51-2.54-10.75-2.21-16.08.49a75.94,75.94,0,0,1-7.53,2.88l17.47,5.4a25.3,25.3,0,0,1,3.43-2.1C335.15,595.33,338.66,594.1,342.16,592.83Zm-42.59,11.42c5.95,1.9,11.35,3.63,16.76,5.33a1.49,1.49,0,0,0,1-.18,32.77,32.77,0,0,1,3.76-2.15c3.16-1.23,6.39-2.28,9.59-3.4-5.25-2-10.48-3.63-15.71-5.22a1.54,1.54,0,0,0-.9,0C309.43,600.45,304.77,602.25,299.57,604.25Zm157.52,19.22c3.42-3.21,8-3.46,11.9-5.77-6.1-1.84-11.92-3.6-17.75-5.33a2.08,2.08,0,0,0-1.24.17c-2.56,1-5.1,2-7.65,3.05l-4.84,1.92Zm-30.62-32.85a85.28,85.28,0,0,1-8.64-2.61,14.61,14.61,0,0,0-13.38.54,70.27,70.27,0,0,1-7.88,3.14l0,.4,17.29,5.18C417.43,593.27,422.53,593.3,426.47,590.62Zm-137.64-4,17.95,5.56c3.62-4,9-3.77,13.15-6.43-4.89-1.52-9.68-3-14.48-4.5a1.66,1.66,0,0,0-.91,0C299.47,583,294.41,584.7,288.83,586.6Zm94.79-8.51c-.74-.27-1.29-.51-1.86-.68-3.71-1.1-7.47-2.07-11.13-3.32a7.59,7.59,0,0,0-6.05.27c-3.61,1.67-7.37,3-11.5,4.68l17.14,5.14C374.25,580.9,379.27,580.5,383.62,578.09ZM492,624.61a92.26,92.26,0,0,1-9.33-2.9,16,16,0,0,0-14.95.63,52.18,52.18,0,0,1-6.23,2.47l19.36,5.87C483.65,626.6,488.5,627.1,492,624.61Zm-141.85-19c1.1-3.09,4-2.84,6.08-3.79s4.63-1.72,7-2.55c-4.71-1.83-9.4-3.25-14.1-4.63a2.12,2.12,0,0,0-1.28.13c-4.64,1.67-9.27,3.38-13.91,5.08a4.63,4.63,0,0,0-.72.51Zm-1.73-27.91c3.86-3.21,8.73-3.74,13-6.23-5-1.47-9.78-2.86-14.54-4.23a1.69,1.69,0,0,0-.92,0q-7.32,2.44-14.62,4.93v.39Zm56.71,6.67c-3.74-1.11-7.05-1.85-10.18-3.06a11.68,11.68,0,0,0-9.84.34c-3.12,1.47-6.46,2.48-9.7,3.7v.42l16.29,4.89a19.83,19.83,0,0,1,3.14-2.23C398.08,587,401.35,585.83,405.17,584.34Zm10,26.37,18.48,5.63c2.8-3.81,7.56-3.48,11-5.94-4.71-1.41-9.33-2.71-13.89-4.2a6.41,6.41,0,0,0-5.31.23C422.32,608,419,609.16,415.15,610.71ZM559.3,654.49l13.62,4.17c1.72.53,3.46,1.53,4.93-.53.19-.26.66-.32,1-.48l8.94-4.35c-5.36-1.61-10.25-3.09-15.14-4.54a1.66,1.66,0,0,0-1.1.08C567.59,650.64,563.65,652.48,559.3,654.49ZM671,650.67l0-.43-15.21-4.56c-.89-.26-2-.84-2.68-.55-3.59,1.51-7.07,3.25-10.6,4.91,5.55,2,11,3.66,16.4,5.26a1.73,1.73,0,0,0,1.08,0C663.72,653.78,667.38,652.22,671,650.67Zm-248.9-47c-5.43-1.63-10.57-3.18-15.71-4.7a1.81,1.81,0,0,0-1,.13c-2.44,1-4.86,1.95-7.3,2.9-1.56.61-3.15,1.18-4.72,1.76l.06.39,17.27,5.24C414.1,606.29,418.35,605.85,422.14,603.65ZM580.54,661l16.29,4.95c2.94-3.34,7.15-4.16,10.58-6.74-4.75-1.42-9.27-2.77-13.81-4.08a1.93,1.93,0,0,0-1.26.17C588.57,657.05,584.82,658.88,580.54,661ZM400.07,597c-4.94-1.47-9.66-2.89-14.39-4.28a2.24,2.24,0,0,0-1.28,0c-4.3,1.44-8.58,2.93-13.42,4.59l17.66,5.37C391.76,599.15,396.34,599.36,400.07,597ZM366.52,596c3.51-3.42,8.17-3.19,11.89-5.4-3.82-1.16-7.51-2.1-11.08-3.4a11,11,0,0,0-8.8.21c-2.84,1.27-5.87,2.12-9.31,3.33Zm-10.46-11.63v-.49q-6.61-2-13.22-3.91a1.84,1.84,0,0,0-1.09,0c-4.08,1.47-8.15,3-12.72,4.64l17.34,5.25c-.18-2,1-2.5,2.3-2.94C351.14,586,353.6,585.17,356.06,584.32ZM628.35,637.8c-4.32-1.23-8.15-2.13-11.83-3.45a7.64,7.64,0,0,0-7.17.69c-2.08,1.28-4.37,2.22-7,3.53,5.37,1.59,10.2,3,15,4.43a1.57,1.57,0,0,0,1.07,0C621.59,641.34,624.73,639.69,628.35,637.8Zm-5.16,6.93,15.19,4.47c2.34-3.26,6.14-3.68,9.1-5.91-4.66-1.34-9.07-2.62-13.49-3.87a1.33,1.33,0,0,0-.9.06C629.9,641.15,626.73,642.85,623.19,644.73Zm-89.31-34c-4.25-1.21-8.25-2.19-12.14-3.51-2.43-.82-4.48-1-6.7.63A48.06,48.06,0,0,1,509,611l16.82,5C527.58,612.8,531.16,612.76,533.88,610.77Zm55,15.75c-3.77-1.08-7.19-2-10.58-3-2.19-.67-4.16-1.26-6.35.42-1.89,1.46-4.25,2.32-6.88,3.69l14.46,4.27Zm-4.61,6.74,13.16,3.87,9.9-5.33c-3.77-1.08-7.2-2-10.57-3.06-1.86-.6-3.34-.72-5.11.58C589.57,630.85,587.07,631.81,584.28,633.26ZM335.88,577.8c-3.68-1.11-7.14-2.17-10.61-3.2a1.59,1.59,0,0,0-.89,0c-4.29,1.43-8.57,2.88-13.38,4.51l13.1,4C327.58,580.06,332.15,580.23,335.88,577.8Zm211.21,44.48L562,626.67c1.23-3.51,5-3.61,7.25-5.78-2.88-.82-5.6-1.51-8.26-2.39-2.18-.72-4.09-1-6.28.38S550,621,547.09,622.28Zm4.73-6.35c-3-.88-5.85-1.55-8.57-2.53a7.39,7.39,0,0,0-6.54.39c-2.14,1.19-4.48,2-6.74,3l0,.42,13.39,4C545.3,617.92,549,618,551.82,615.93Zm-60.94-10.21,13.39,3.93,8.47-4.91c-4.28-1.23-8.35-2.4-12.42-3.55a1.09,1.09,0,0,0-.71.1C496.83,602.69,494.06,604.1,490.88,605.72Zm3.55-6.22c-4.05-1.16-7.88-2.28-11.72-3.34a2.39,2.39,0,0,0-1.4.21c-1.85.75-3.68,1.55-5.51,2.37-1,.42-1.89.92-3.24,1.58l14.71,4.32C488.61,601.39,492.13,601.58,494.43,599.5Zm-35.49-10.16L447.11,586a1.51,1.51,0,0,0-.91,0c-2.66,1.29-5.29,2.61-8.38,4.14,4.67,1.37,8.85,2.6,13,3.8a1.19,1.19,0,0,0,.87-.09C454.05,592.37,456.36,590.93,458.94,589.34Zm17.18,4.93c-2.56-.74-5-1.24-7.21-2.13-3-1.19-5.66-1.19-8.33.79a34.6,34.6,0,0,1-4.76,2.45l13,3.82C470.3,596,473.78,596.2,476.12,594.27Zm-35.28-10.09c-2.75-.8-5.4-1.45-8-2.34s-4.82-1.36-7.19.54c-1.35,1.08-3.11,1.64-5,2.62l12.51,3.68Zm-17.18-4.93c-2.75-.78-5-1.21-7-2a8.06,8.06,0,0,0-7.92.56,42.71,42.71,0,0,1-4.86,2.27c3.23,1,5.91,1.76,8.6,2.54,2,.57,3.81,1.62,5.8-.51C419.45,580.8,421.51,580.33,423.66,579.25Zm-33.42-9.55c-3.85-1.11-7.31-2.12-10.79-3.08a2.39,2.39,0,0,0-1.45,0c-2.53,1-5,2.12-8,3.38l12.2,3.62Zm16.46,4.7c-2.45-.7-4.79-1.19-7-2a7.49,7.49,0,0,0-6.59.38c-1.71.9-3.59,1.48-5.87,2.4,4,1.18,7.3,2.19,10.65,3.17a2,2,0,0,0,1.26.08C401.6,577.16,404,575.85,406.7,574.4Zm-53.32-9.68v.44c3.87,1.15,7.75,2.32,11.64,3.42a1.93,1.93,0,0,0,1.26-.36c.89-.53,1.68-1.22,2.6-1.71,1.14-.6,2.37-1.07,4-1.78-3.59-1-6.64-1.93-9.71-2.76a3.12,3.12,0,0,0-1.66,0C358.79,562.85,356.09,563.8,353.38,564.72ZM602.31,714.67c-4.2,1.87-8.36,3.67-12.47,5.56-1.55.72-1.46,2-1.05,3.49,3.84-1.51,7.54-3,11.25-4.43C602.91,718.18,602.92,718.2,602.31,714.67Zm1.05,7.85-.62-.38c-4.09,1.69-8.17,3.41-12.28,5.05-1.45.58-1.62,1.46-1,3,4.51-2,8.92-3.87,13.27-5.89C603.12,724.11,603.15,723.13,603.36,722.52Zm3.36-.3h1c.94-3.08.27-6.24.23-9.87-.82.61-1.67,1-1.66,1.28C606.33,716.49,606.55,719.35,606.72,722.22Z" transform="translate(-147.85 -231.79)"/><path d="M806.92,331.59c-.67,2.57-1.67,6.43-2.72,10.28q-30.45,111.9-60.92,223.78a13.32,13.32,0,0,0-.5,2.56c-.12,2-.87,2.67-2.88,2.17-4.91-1.22-9.81-2.5-14.72-3.75L478,503.37l-29.25-7.49c-2.69-.69-3.08-1.32-2.38-4q11.49-43.14,23-86.27,16.71-62.77,33.41-125.53c.39-1.45.8-2.89,1.17-4.34s1.09-2.19,2.67-2c4.69.7,9.4,1.3,14.08,2.07q28.57,4.75,57.15,9.59l61.77,10.39L694.38,305,756,315.39l45.31,7.6C805.69,323.73,807.25,325.71,806.92,331.59ZM507.3,277.52,450.12,492.3l2.08.61q28.71-107.7,57.37-215.11Z" transform="translate(-147.85 -231.79)"/><path d="M691.27,571a5.58,5.58,0,0,1-1.87-.24c-3.39-1-6.82-1.79-10.23-2.69l-21-5.5-85.08-22.25-84.6-22.14a36.54,36.54,0,0,1-4.78-1.14c-2.66-1.09-1.65-4,1.07-3.69a37.67,37.67,0,0,1,5.19,1.34c3.46.92,6.92,1.81,10.39,2.72L521.58,523,564.1,534.1l84.56,22.14c13.91,3.64,27.79,7.5,41.77,10.84,1.1.27,2.5,1.17,2.4,2.47A1.49,1.49,0,0,1,691.27,571Z" transform="translate(-147.85 -231.79)"/><path d="M651.57,263.56c3,.53,6,1,9,1.62,1.73.35,2.29,1.43,1.83,3.2-1,3.74-1.82,7.52-2.76,11.28-.6,2.42-1.37,2.89-3.89,2.56s-5-.59-7.43-1c-2.21-.32-2.93-1.13-2.46-3.3.93-4.26,2.06-8.48,3.12-12.71A2.16,2.16,0,0,1,651.57,263.56Z" transform="translate(-147.85 -231.79)"/><path d="M823.34,301.68a34.49,34.49,0,0,1-2.07,4.61c-1.18,2-3.15,2.83-4.72,2.16-2.75-1.2-3.62-1.68-3.71-4.9a8.79,8.79,0,0,1,2-6.26,5,5,0,0,1,5.68-1.73C822.38,296.33,823.4,298.15,823.34,301.68Z" transform="translate(-147.85 -231.79)"/><path d="M747.2,591.62c-.15,2.54-.92,4.52-2.88,5.86a4.28,4.28,0,0,1-6.32-1.74,7.65,7.65,0,0,1,.46-7.84c1.07-1.63,2.49-2.64,4.53-2.33a4.52,4.52,0,0,1,3.66,3.36A17.88,17.88,0,0,1,747.2,591.62Z" transform="translate(-147.85 -231.79)"/><path d="M509.85,251.27a9.57,9.57,0,0,1-2.67,6,3.45,3.45,0,0,1-6-1.38,7.75,7.75,0,0,1,2.32-8.13,3.93,3.93,0,0,1,4.37-.58C509.38,247.87,509.89,249.2,509.85,251.27Z" transform="translate(-147.85 -231.79)"/><path d="M434.68,510.92a6.46,6.46,0,0,1,2.62-4.51,3.3,3.3,0,0,1,3.2-.41c2.33,1.12,2.66,4.45,1.85,6.6s-3.51,4.69-5.87,3.25C434.86,514.87,434.39,512.87,434.68,510.92Z" transform="translate(-147.85 -231.79)"/><path d="M341.27,686.85c-.75-.21-1.42-.35-2.07-.56l-50.85-17a2.26,2.26,0,0,1-.87-.33c-.7-.68-1.78-1.36-1.88-2.15-.07-.6,1-1.64,1.75-2,1.91-.91,3.95-1.55,5.94-2.3,15.86-5.94,31.7-11.91,47.59-17.77a7.5,7.5,0,0,1,4.49-.2c17.09,5.41,34.15,10.94,51.2,16.46a12.58,12.58,0,0,1,2.61,1c.52.31,1.2.95,1.2,1.44a3.06,3.06,0,0,1-1,1.82,4.2,4.2,0,0,1-1.53.68l-54.3,20.15C342.8,686.44,342,686.63,341.27,686.85Zm51.66-23c-.95-.36-1.51-.61-2.08-.79q-23-7.42-46-14.78a5,5,0,0,0-3,.13c-9,3.29-17.91,6.67-26.86,10l-8.29,3.11c1.27.46,2.06.75,2.86,1,14.45,4.84,28.92,9.65,43.34,14.57a6.27,6.27,0,0,0,4.61,0c8.23-3.14,16.5-6.17,24.76-9.23Zm-43.7,16.22c-.35-.27-.47-.43-.63-.48q-10.85-3.65-21.69-7.25c-.35-.12-.79-.31-1.07-.2-2.39,1-4.76,2-7.18,3,.18.21.23.36.33.39q10.67,3.58,21.33,7.14a2.45,2.45,0,0,0,1.46.09C344.23,682,346.64,681,349.23,680.07Zm-56-13.49.08.44q9.25,3.08,18.5,6.14a2.43,2.43,0,0,0,1.43.08c2.4-.87,4.76-1.82,7.3-2.81a3.2,3.2,0,0,0-.62-.41q-9.06-3.06-18.12-6.1a1.89,1.89,0,0,0-1.09-.11C298.17,664.7,295.69,665.65,293.2,666.58Z" transform="translate(-147.85 -231.79)"/><path d="M563.85,731.11c.47.36,1.27.67,1.42,1.17a2.5,2.5,0,0,1-.42,2,5.68,5.68,0,0,1-2.09,1.17q-20.31,8.79-40.62,17.54c-1.35.58-3.06,1.61-3.88-.38s1.14-2.45,2.48-3q20.47-8.87,41-17.69C562.33,731.62,563,731.42,563.85,731.11Z" transform="translate(-147.85 -231.79)"/><path d="M711.89,669.11a5.43,5.43,0,0,1,3.15-4.76,50.33,50.33,0,0,1,6.39-2.6,4.66,4.66,0,0,1,3.41.47c1.28.83.84,2.31.36,3.59a7.16,7.16,0,0,1-4.13,4.55,52.18,52.18,0,0,1-5.63,2C713.25,672.89,711.81,671.55,711.89,669.11Z" transform="translate(-147.85 -231.79)"/></g></svg>