<svg id="Layer_1" data-name="Layer 1" xmlns="http://www.w3.org/2000/svg" viewBox="0 0 100 100"><path d="M73.56,33.57a16.93,16.93,0,0,0-3.09.29,14.93,14.93,0,0,0-6,0,13.54,13.54,0,0,0-6,0,12.19,12.19,0,0,0-6,0,10.88,10.88,0,0,0-6,.06,9.56,9.56,0,0,0-6,.06,8.43,8.43,0,0,0-6,.08,7.4,7.4,0,0,0-6,.09,6.43,6.43,0,0,0-6,.13,5.76,5.76,0,0,0-2.9-.82C14.16,33.57,10,40.94,10,50s4.16,16.44,9.27,16.44a5.78,5.78,0,0,0,2.9-.83,6.36,6.36,0,0,0,6,.13,7.3,7.3,0,0,0,6,.09,8.5,8.5,0,0,0,3.12.61,8.76,8.76,0,0,0,2.92-.52,9.85,9.85,0,0,0,3.11.52A9.61,9.61,0,0,0,46.33,66a10.61,10.61,0,0,0,3.11.47A10.91,10.91,0,0,0,52.37,66a11.86,11.86,0,0,0,6,0,13.54,13.54,0,0,0,3.1.37,13.12,13.12,0,0,0,2.94-.33,14.59,14.59,0,0,0,6,0,16.1,16.1,0,0,0,3.09.3,16.44,16.44,0,1,0,0-32.87Zm-6,.64c.43,0,.85,0,1.28.06h0l-.55.18-.3.1-.69.28c-.44-.2-.88-.38-1.33-.54A14.7,14.7,0,0,1,67.53,34.21ZM66,35.42l-.54.3-.3.17-.54.34-.25.17c-.19.12-.37.25-.55.39a14.42,14.42,0,0,0-1.93-1.41,15.49,15.49,0,0,1,2.55-.83,12.93,12.93,0,0,1,2,.64l-.14.08Zm-3,2-.28.25-.21.19-.27.25c-.07.07-.14.13-.2.2l-.26.26-.2.21c-.08.09-.17.18-.25.28l-.18.2a3.76,3.76,0,0,0-.25.31c-.06.06-.11.13-.17.2l-.26.34-.13.18-.09.11a16.09,16.09,0,0,0-2-2.77,15,15,0,0,1,3-2,13.05,13.05,0,0,1,2.13,1.47l-.12.1Zm-3.42,4-.15.26-.15.25-.15.28-.14.25c0,.09-.09.19-.14.28l-.12.26a2.55,2.55,0,0,0-.13.29l-.12.25-.12.3c0,.08-.07.17-.1.26l-.11.3L58,44.7c0,.1-.07.21-.1.31a2.41,2.41,0,0,0-.08.25c0,.11-.07.22-.1.32a2.5,2.5,0,0,1-.07.26c0,.11,0,.22-.08.33l-.06.25c0,.11,0,.22-.07.33a2.38,2.38,0,0,1-.05.26c0,.11,0,.22,0,.33s0,.17-.05.26,0,.23,0,.34l0,.25c0,.12,0,.25,0,.37a1.79,1.79,0,0,1,0,.23c0,.14,0,.28,0,.41s0,.13,0,.19,0,.41,0,.61,0,.41,0,.61,0,.12,0,.19,0,.27,0,.41a1.79,1.79,0,0,1,0,.23c0,.12,0,.25,0,.37l0,.25c0,.11,0,.23,0,.34s0,.17.05.26,0,.22,0,.34a1.84,1.84,0,0,1,.05.25c0,.11,0,.22.07.33l.06.25c0,.11.05.22.08.33a2.5,2.5,0,0,1,.07.26c0,.1.06.21.1.32a2.41,2.41,0,0,0,.08.25,2.81,2.81,0,0,0,.1.31l.09.26c0,.1.07.2.11.31l.1.25.12.3.12.25a2.55,2.55,0,0,0,.13.29l.12.26c.05.09.1.19.14.28l.14.26.15.27.15.25.15.27.16.25.11.18a14.48,14.48,0,0,1-2.1,2.92,15.55,15.55,0,0,1-3.28-4.25,21,21,0,0,0,0-15.3A15.5,15.5,0,0,1,57.7,38.1,14.84,14.84,0,0,1,59.8,41s-.07.11-.11.17Zm1.15,18.73.17.21.25.3.18.2c.08.1.17.19.25.28l.2.21a3.19,3.19,0,0,0,.26.26,1.89,1.89,0,0,0,.2.2l.27.25.21.2.28.24.22.18.12.1a13.05,13.05,0,0,1-2.13,1.47,15,15,0,0,1-3-2,16.09,16.09,0,0,0,2-2.77l.09.11c0,.07.09.12.13.18Zm3.93,3.58.54.34.3.17.54.3.29.15.15.08a12.93,12.93,0,0,1-2,.64,14.6,14.6,0,0,1-2.55-.83,14.42,14.42,0,0,0,1.93-1.41l.55.4ZM58.4,65.41a12.9,12.9,0,0,1-2.64-1,14.61,14.61,0,0,0,2-1.64,15.79,15.79,0,0,0,2.73,1.85A12.27,12.27,0,0,1,58.4,65.41Zm-6,0a11.93,11.93,0,0,1-2.71-1.15,13,13,0,0,0,2-1.92,14.62,14.62,0,0,0,2.81,2.18A11.4,11.4,0,0,1,52.36,65.36Zm-6-.06A10.94,10.94,0,0,1,43.53,64a13.76,13.76,0,0,0,2-2.29,14.45,14.45,0,0,0,2.9,2.59A10,10,0,0,1,46.33,65.3ZM21.12,50A20.06,20.06,0,0,1,24.8,37.88a17.74,17.74,0,0,1,2.12,4.83,22.57,22.57,0,0,0,0,14.58,17.74,17.74,0,0,1-2.12,4.83A20,20,0,0,1,21.12,50Zm3.3,12.67a8.89,8.89,0,0,1-2.26,2.21c-3.66-2.17-6.28-8-6.28-14.88s2.62-12.7,6.28-14.88a8.77,8.77,0,0,1,2.26,2.22,20.53,20.53,0,0,0-4,12.66A20.58,20.58,0,0,0,24.42,62.67Zm.79-25.29a9.78,9.78,0,0,1,3-2.41,8.78,8.78,0,0,1,2.25,1.81,16,16,0,0,0-3.16,5A17.89,17.89,0,0,0,25.21,37.38Zm2,6.48A27.17,27.17,0,0,1,27.9,50a27.11,27.11,0,0,1-.68,6.14,22.1,22.1,0,0,1,0-12.28Zm.07,14.39a15.91,15.91,0,0,0,3.16,5A8.78,8.78,0,0,1,28.2,65a9.64,9.64,0,0,1-3-2.41A17.89,17.89,0,0,0,27.29,58.25Zm.3-1a27.93,27.93,0,0,0,0-14.52,15.81,15.81,0,0,1,3.28-5.48A15.57,15.57,0,0,1,33,40.94a20.86,20.86,0,0,0,0,18.12,15.37,15.37,0,0,1-2.15,3.68A15.72,15.72,0,0,1,27.59,57.26Zm3.72-20.44a10,10,0,0,1,2.93-2,9.05,9.05,0,0,1,2.23,1.49,15.09,15.09,0,0,0-3.07,3.88A15,15,0,0,0,31.31,36.82Zm2,4.93a25.18,25.18,0,0,1,0,16.5,20.32,20.32,0,0,1,0-16.5Zm.06,18a14.92,14.92,0,0,0,3.07,3.88,9.05,9.05,0,0,1-2.23,1.49,10,10,0,0,1-2.93-2A15,15,0,0,0,33.4,59.77Zm.32-.75a25.34,25.34,0,0,0,0-18,14.3,14.3,0,0,1,3.22-4.18,13.7,13.7,0,0,1,2.15,2.93,19.58,19.58,0,0,0,0,20.54,13.7,13.7,0,0,1-2.15,2.93A14.17,14.17,0,0,1,33.72,59ZM48.48,35.75a14.45,14.45,0,0,0-2.9,2.59,13.76,13.76,0,0,0-2-2.29,11.28,11.28,0,0,1,2.8-1.35A10,10,0,0,1,48.48,35.75Zm3.88-1.11a11.4,11.4,0,0,1,2.11.89,14.62,14.62,0,0,0-2.81,2.18,13,13,0,0,0-2-1.92A11.93,11.93,0,0,1,52.36,34.64Zm6,0a12.59,12.59,0,0,1,2.07.76,15.3,15.3,0,0,0-2.73,1.86,13.26,13.26,0,0,0-2-1.64A12.94,12.94,0,0,1,58.4,34.59Zm-1.15,3a16.17,16.17,0,0,0-3.15,4,16.65,16.65,0,0,0-2-3.38,14,14,0,0,1,3-2.3A12.42,12.42,0,0,1,57.25,37.63ZM54,56.87a16.48,16.48,0,0,1,0-13.74,20.75,20.75,0,0,1,0,13.74Zm-2.42,4.46a16.08,16.08,0,0,1-3.33-5.56,22.87,22.87,0,0,0,0-11.54,15.94,15.94,0,0,1,3.33-5.55,16,16,0,0,1,2.1,3.64,17,17,0,0,0,0,15.36A16.26,16.26,0,0,1,51.62,61.33Zm-6.08-.74a17.33,17.33,0,0,1-3.4-8.86c0-.57.06-1.15.06-1.73s0-1.16-.06-1.72a17.26,17.26,0,0,1,3.4-8.86,17.85,17.85,0,0,1,2.07,4.78,18.18,18.18,0,0,0,0,11.6A17.92,17.92,0,0,1,45.54,60.59ZM47.3,50a17.56,17.56,0,0,1,.61-4.58,22.09,22.09,0,0,1,0,9.16A17.5,17.5,0,0,1,47.3,50Zm3.91-11.83a16.76,16.76,0,0,0-3.22,5,18.29,18.29,0,0,0-2-4.32,14.11,14.11,0,0,1,3.1-2.75A12.44,12.44,0,0,1,51.21,38.17Zm-6.05.68a17.58,17.58,0,0,0-3.3,7.07,20.43,20.43,0,0,0-2-6.14A13.86,13.86,0,0,1,43,36.43,12.65,12.65,0,0,1,45.16,38.85ZM39.44,59.61a19,19,0,0,1,0-19.22,21.21,21.21,0,0,1,2.06,7.88c0,.56-.08,1.15-.08,1.73s0,1.17.08,1.73A21.16,21.16,0,0,1,39.44,59.61Zm.05-20.46a14.32,14.32,0,0,0-2.07-2.76,10.73,10.73,0,0,1,2.86-1.62A9.65,9.65,0,0,1,42.48,36,14.62,14.62,0,0,0,39.49,39.15Zm0,21.7a14.17,14.17,0,0,0,3,3.13,9.29,9.29,0,0,1-2.2,1.25,10.46,10.46,0,0,1-2.86-1.62A13.73,13.73,0,0,0,39.49,60.85Zm.35-.63a20.34,20.34,0,0,0,2-6.14,17.58,17.58,0,0,0,3.3,7.07A12.65,12.65,0,0,1,43,63.57,13.86,13.86,0,0,1,39.84,60.22Zm6.12.89a18.29,18.29,0,0,0,2-4.32,16.76,16.76,0,0,0,3.22,5,12.44,12.44,0,0,1-2.15,2A13.86,13.86,0,0,1,46,61.11Zm6.11.68a16.65,16.65,0,0,0,2-3.38,16.17,16.17,0,0,0,3.15,4,13,13,0,0,1-2.14,1.73A14.36,14.36,0,0,1,52.07,61.79ZM61.5,34.21a13.94,13.94,0,0,1,1.45.08,15.88,15.88,0,0,0-1.77.7,11.82,11.82,0,0,0-1.46-.65A13.32,13.32,0,0,1,61.5,34.21Zm-6,0a10.64,10.64,0,0,1,1.59.12,12.61,12.61,0,0,0-1.93.83,13,13,0,0,0-1.59-.78A11.44,11.44,0,0,1,55.47,34.21Zm-6,0a11.1,11.1,0,0,1,1.72.15,13.44,13.44,0,0,0-2.09,1,10.87,10.87,0,0,0-1.69-1A10.23,10.23,0,0,1,49.44,34.21Zm-6,0a8.74,8.74,0,0,1,1.85.2A11.89,11.89,0,0,0,43,35.62a10.63,10.63,0,0,0-1.8-1.13A8.88,8.88,0,0,1,43.4,34.21Zm-6,0a7.66,7.66,0,0,1,2,.26A11.17,11.17,0,0,0,37,35.94a9.87,9.87,0,0,0-1.9-1.38A7.84,7.84,0,0,1,37.37,34.21Zm-6,0a6.66,6.66,0,0,1,2.08.33,10.8,10.8,0,0,0-2.52,1.8,9.93,9.93,0,0,0-2-1.68A6.84,6.84,0,0,1,31.34,34.21Zm-6,0a5.83,5.83,0,0,1,2.17.43,10.72,10.72,0,0,0-2.65,2.21,10,10,0,0,0-2-2.06A6,6,0,0,1,25.31,34.21Zm-6,31.58c-4.76,0-8.63-7.08-8.63-15.79s3.87-15.79,8.63-15.79a5.2,5.2,0,0,1,2.27.55c-3.69,2.45-6.3,8.35-6.3,15.24s2.61,12.8,6.3,15.24A5.06,5.06,0,0,1,19.27,65.79Zm6,0a5.89,5.89,0,0,1-2.53-.58,10,10,0,0,0,2-2.06,10.5,10.5,0,0,0,2.65,2.21A5.83,5.83,0,0,1,25.31,65.79Zm6,0a6.84,6.84,0,0,1-2.42-.45,9.61,9.61,0,0,0,2-1.68,10.51,10.51,0,0,0,2.52,1.8A6.66,6.66,0,0,1,31.34,65.79Zm6,0a7.84,7.84,0,0,1-2.31-.35A9.87,9.87,0,0,0,37,64.06a11.17,11.17,0,0,0,2.38,1.47A7.66,7.66,0,0,1,37.37,65.79Zm3.84-.28A10,10,0,0,0,43,64.38a12.55,12.55,0,0,0,2.24,1.22,9.44,9.44,0,0,1-1.85.19A8.88,8.88,0,0,1,41.21,65.51Zm6.17.06a10.81,10.81,0,0,0,1.69-.94,13,13,0,0,0,2.09,1A10.22,10.22,0,0,1,47.38,65.57Zm6.16.05a13,13,0,0,0,1.59-.78,12.94,12.94,0,0,0,1.92.83A11.18,11.18,0,0,1,53.54,65.62Zm6.18,0A11.82,11.82,0,0,0,61.18,65a15.88,15.88,0,0,0,1.77.7A12.94,12.94,0,0,1,59.72,65.66Zm6.18,0c.45-.16.89-.34,1.33-.54l.69.28.3.1.55.18h0A14.15,14.15,0,0,1,65.9,65.7Zm7.66.09a16.28,16.28,0,0,1-3-.29,15.4,15.4,0,0,1-3.18-1,15.88,15.88,0,0,1-6.9-5.74,15.72,15.72,0,0,1,0-17.56c.24-.36.5-.71.76-1a16,16,0,0,1,1.48-1.6A13.93,13.93,0,0,1,64,37.45h0c.26-.2.52-.38.79-.57s.73-.46,1.11-.67a15.21,15.21,0,0,1,1.46-.72,16.14,16.14,0,0,1,2.37-.81l.81-.18h0a16.28,16.28,0,0,1,3-.29,15.79,15.79,0,1,1,0,31.58Z"/><path d="M87.59,50.35,87.07,50a2.92,2.92,0,0,1-2.39,1.21h0A2.91,2.91,0,0,1,82.3,50l-.52.38a3.57,3.57,0,0,0,2.57,1.46,9.25,9.25,0,0,1-18.5,0,3.57,3.57,0,0,0,2.57-1.46L67.9,50a2.95,2.95,0,0,1-4.76,0l-.53.38a3.59,3.59,0,0,0,2.59,1.46,9.9,9.9,0,0,0,19.8,0A3.56,3.56,0,0,0,87.59,50.35Z"/><path d="M74,47.38a16.9,16.9,0,0,0,0-7.57c-.56-1.65-1.49-1-2.07,1.57a17,17,0,0,0,0,7.56C72.53,50.6,73.46,49.9,74,47.38Z"/><path d="M78.2,47.38a16.9,16.9,0,0,0,0-7.57c-.56-1.65-1.49-1-2.06,1.57a16.87,16.87,0,0,0,0,7.56C76.69,50.6,77.62,49.9,78.2,47.38Z"/></svg>