<svg id="Layer_1" data-name="Layer 1" xmlns="http://www.w3.org/2000/svg" viewBox="0 0 725.84 502.49"><g id="_073._Laptop_Landscape" data-name="073. Laptop Landscape"><path d="M492.39,750.58q-22,0-44.07,0-91.69-.15-183.39-.32-33.26-.07-66.5-.23c-6.74,0-13.49-.29-20.22-.12-5,.13-9.54-1.48-14.23-2.53-8.27-1.85-15.94-5.36-23.46-9.18a5.43,5.43,0,0,1-3.06-4.15,24,24,0,0,1,0-8.62,13.3,13.3,0,0,1,3-6l47.89-58.59c10.09-12.35,20.15-24.73,30.3-37a46.6,46.6,0,0,1,5.21-5,2,2,0,0,0,.77-1.89c-.1-1.35.07-2.72-.05-4.07a4.65,4.65,0,0,0-.73-2.45,4.74,4.74,0,0,1-1-3.21q0-29.7.06-59.39.12-64.93.26-129.85c0-21.17,0-42.33.06-63.5q.07-40.44.23-80.87c0-3.63.21-7.26.32-10.88a11.33,11.33,0,0,1,2.29-6.45c3.18-4.38,7.4-7,12.9-7.13,4.79-.1,9.58,0,14.37,0L435.61,249q26.07,0,52.13-.06l260.8-.18c3.57,0,7.14.12,10.71,0a13.93,13.93,0,0,1,9.91,3.82,18.33,18.33,0,0,1,6.73,13.28c.22,4.83.55,9.67.55,14.51q-.12,71.86-.32,143.74-.15,61.22-.32,122.42-.09,30.16-.26,60.34a23.8,23.8,0,0,1-.38,2.63,13.42,13.42,0,0,0,0,1.68c0,1.83,0,3.65.16,5.47a2.84,2.84,0,0,0,.53,1.64c1.7,1.92,3.61,3.67,5.24,5.64,7.39,8.93,14.71,17.9,22.06,26.86q26.49,32.31,53,64.6A45.77,45.77,0,0,1,862,723.8a10.63,10.63,0,0,1,.95,5.34c-.11,2.31-.54,4.6-.69,6.91a3.51,3.51,0,0,1-1.81,3.12,61.67,61.67,0,0,1-7,3.58,114.64,114.64,0,0,1-27,6.89c-5.78.77-11.61,1.31-17.44,1.52-6.36.23-12.73-.08-19.1-.08q-73-.11-146-.18-75.75-.14-151.49-.36Zm6.79-142.23v-.27H548L768.67,608c3.28,0,3.21.39,3.22-3.13q.11-44.72.22-89.41c.11-45.76.3-91.52.34-137.28,0-37-.1-74-.2-111a15.3,15.3,0,0,0-6.17-12.26,9.15,9.15,0,0,0-5.78-2.24c-3,0-6-.2-9-.2q-69.75.09-139.49.21-169.82.09-339.64.13-16.19,0-32.38-.07c-5.74,0-12.56,4.43-12.5,12,0,4.15-.18,8.31-.18,12.46q-.13,68.24-.22,136.49-.08,58.29-.16,116.58-.06,37.75-.15,75.51c0,2.59,0,2.59,2.61,2.59Zm3.32,122.41v.32q83.16,0,166.33,0,89.25,0,178.5.15c2.73,0,5.46-.21,8.2-.29a2.83,2.83,0,0,0,2.74-2,5.13,5.13,0,0,0-.53-5,71.8,71.8,0,0,0-4.48-6.1q-32.73-40-65.5-79.88c-3.67-4.47-7.48-8.84-11-13.42-2.71-3.5-6-5.46-10.47-5.4-4.64.06-9.27,0-13.9,0-4,0-8,0-12,0a3.46,3.46,0,0,0-1.1.39,3.34,3.34,0,0,0,.77.6,1.81,1.81,0,0,1,1.4,2c-.14,1.08-1,1.48-1.9,1.59a24.26,24.26,0,0,1-2.83.09H356q-45.88,0-91.77,0a9.33,9.33,0,0,1-2.65-.27,1.73,1.73,0,0,1-.71-2.92c.38-.38.83-.69,1.25-1l-1.91,0c-.32,0-.64,0-1,0l-23.85.16a34.79,34.79,0,0,0-4.57.19c-3.8.57-6.61,2.78-9,5.68q-39.36,48.21-78.72,96.41a10.11,10.11,0,0,0-1.47,2.41,3.47,3.47,0,0,0,3.08,5.11c5.14.34,10.29.73,15.44.78,13.32.13,26.65.1,40,.11q105.2.13,210.4.24Q456.53,730.79,502.5,730.76Zm3.58,15.81v.63q88.55,0,177.07,0,61.14,0,122.26.14c3,0,6,0,9-.14a136,136,0,0,0,26.28-4.3,73.13,73.13,0,0,0,14.86-5.25,14.68,14.68,0,0,0,2.51-1.61c.27-.23.23-.84.33-1.27a4.08,4.08,0,0,0-1-.19c-3.68.12-7.35.39-11,.39-20,0-40-.06-60-.08l-193-.22-47.07-.08-211.66-.23q-70.6-.07-141.22-.17-20.28,0-40.57-.34c-3.65-.05-7.39.49-10.91-1.1-.57-.26-.75.13-.68.66.14,1.05,1,1.4,1.78,1.82A111.71,111.71,0,0,0,174.39,746a7.47,7.47,0,0,0,1.41.13c8.16.1,16.32.26,24.48.28q59.39.14,118.78.2Q412.57,746.61,506.08,746.57Zm-5.49-130.06H733.44a11.58,11.58,0,0,0,2.36-.09,1.71,1.71,0,0,0,1.12-.89,2.62,2.62,0,0,0-2.52-3.81h-1.26q-56.16.09-112.32.18-169.5.11-339,.16c-4.85,0-9.69,0-14.54,0a2.63,2.63,0,0,0-2.88,2.8c0,1,.33,1.63,1.44,1.61.79,0,1.58,0,2.37,0ZM245.9,616v0h.79c4.1,0,8.21,0,12.31-.05.52,0,1.38-.23,1.47-.52a13,13,0,0,0,.29-2.93c0-.1-.43-.28-.67-.3a16.57,16.57,0,0,0-1.73-.07l-16.1,0c-4,0-8.11,0-12.16.06-1.54,0-1.66.2-1.82,1.75a11.75,11.75,0,0,0,0,1.57c0,.82.44,1.08,1.25.94A21.13,21.13,0,0,1,233,616C237.27,616,241.58,616,245.9,616ZM756,611.68v0H742.86a5.52,5.52,0,0,0-1.41.08,1.11,1.11,0,0,0-.71.64c-.48,2.22.26,3.09,2.52,3.09h1c8.77.09,17.54.2,26.31.27a1.3,1.3,0,0,0,1-.45,2.4,2.4,0,0,0-2.18-3.65C764.89,611.67,760.42,611.68,756,611.68Z" transform="translate(-137.08 -248.76)"/><path d="M499.84,571.83H249c-.95,0-1.9,0-2.85,0a2.22,2.22,0,0,1-2.44-1.81,11.74,11.74,0,0,1-.42-2.95c-.06-4.74-.06-9.48-.07-14.21q-.1-65.72-.21-131.43,0-29.78-.11-59.55-.08-38.22-.15-76.45a7.29,7.29,0,0,1,.41-2.76c.76-1.82,2.27-2.31,4.23-2.31q65.48.06,131,0H750.49c.84,0,1.69,0,2.53,0a3.13,3.13,0,0,1,3.27,3,14.86,14.86,0,0,1,.07,1.89q-.08,51.74-.15,103.46-.13,62.79-.31,125.58-.07,25.66-.23,51.34a39.6,39.6,0,0,1,0,4.22c-.17,1.59-.74,1.95-2.29,1.95H499.84ZM430.66,346.28v-.22H409.34l-90.66-.14c-2.71,0-2.72,0-2.71,2.67,0,8.38.11,16.75.13,25.12q0,24.39,0,48.8c0,.53,0,1.05,0,1.58a1.07,1.07,0,0,0,1.22,1.26l2.37,0,36.33.18,60.64.32,60.65.31,65.38.36c2.21,0,2.27-.06,2.3-2.33v-.63l.24-74.54c0-2.76,0-2.77-2.8-2.77Zm68.88,221.87v-.24H749.73c2.25,0,2.26,0,2.27-2.3s0-4.53,0-6.79c0-2.76,0-2.76-2.78-2.77l-72-.18-121-.32-117.83-.31-121.3-.32-32.7-.11-35.54,0c-1.81,0-1.88.08-1.89,1.86,0,2.68,0,5.37,0,8,0,3.66-.54,3.48,3.48,3.48ZM430.62,327.41v-.31c-7.05,0-14.1,0-21.16,0q-26.68-.06-53.37-.16-19-.09-37.9-.24c-2.12,0-2.24.11-2.25,2.23,0,3.42,0,6.84,0,10.26,0,3,0,3,3,3l165.19.29,58.9.09c2.16,0,2.24-.08,2.25-2.2q0-5,0-9.95c0-2.79,0-2.79-2.77-2.8q-29.69-.12-59.38-.23C465.68,327.38,448.15,327.41,430.62,327.41Z" transform="translate(-137.08 -248.76)"/><path d="M500.54,599.3a8.58,8.58,0,0,1-8.51-8.54,8.57,8.57,0,1,1,17.14.07A8.62,8.62,0,0,1,500.54,599.3Zm4.76-8.49a4.7,4.7,0,1,0-9.4,0,4.7,4.7,0,0,0,9.4,0Z" transform="translate(-137.08 -248.76)"/><path d="M492.63,265.19a7.62,7.62,0,0,1,7.8-7.62,7.73,7.73,0,1,1-.05,15.46A7.64,7.64,0,0,1,492.63,265.19Zm11.7.14a4,4,0,1,0-4.05,3.95A4,4,0,0,0,504.33,265.33Z" transform="translate(-137.08 -248.76)"/><path d="M551.37,267.45a1.75,1.75,0,0,1-1.71-1.69,1.71,1.71,0,0,1,1.57-1.64,1.75,1.75,0,0,1,1.78,1.61A1.69,1.69,0,0,1,551.37,267.45Z" transform="translate(-137.08 -248.76)"/><path d="M488.86,265.54a1.59,1.59,0,0,1-1.44,1.58,1.62,1.62,0,0,1-1.63-1.56,1.63,1.63,0,0,1,1.53-1.51A1.59,1.59,0,0,1,488.86,265.54Z" transform="translate(-137.08 -248.76)"/><path d="M499.08,681.92q-17.77,0-35.55,0l-155.43.28q-42.25.09-84.51.21a3.87,3.87,0,0,1-3.67-1.64,2.39,2.39,0,0,1-.13-2.92c.81-1.23,1.67-2.43,2.52-3.63Q238,652.14,253.63,630a5.15,5.15,0,0,1,4.65-2.35q34.44.14,68.87.23c26.64.05,53.29,0,79.93.08q75.27.13,150.54.31l150.06.32c12.06,0,24.12.16,36.17.16a5.66,5.66,0,0,1,5.12,2.79c3,4.55,5.9,9.1,8.9,13.62.63,1,1.47,1.76,2.19,2.64a5.54,5.54,0,0,1,.62.9c.65,1.25,1.19,2.58,2,3.75,5.14,8,10.33,15.89,15.5,23.83,1.17,1.8,1.21,2.75,0,4a4.67,4.67,0,0,1-2,1.06,8.12,8.12,0,0,1-2,.07q-72.58.09-145.17.19-64.92,0-129.84,0Zm-15.69-3.71V678H576.9c.52,0,1.05,0,1.58,0,1.31-.1,1.47-.28,1.25-1.55s-.5-2.48-.73-3.72c-.64-3.38-.41-2.94-3.59-2.93q-66,.11-131.9.24-25.9,0-51.81,0c-.53,0-1.06,0-1.58,0a1.33,1.33,0,0,0-1.55,1.2c-.33,1.54-.71,3.08-1.07,4.62-.58,2.49-.57,2.51,2.06,2.5,9.9,0,19.8-.14,29.69-.15Q451.32,678.18,483.39,678.21Zm211.92-12.33v0H735c.93,0,1.14-.39.65-1.17-.75-1.2-1.58-2.37-2.24-3.62a3.11,3.11,0,0,0-3.17-1.76q-37.35.08-74.7.06h-.94c-1.48.06-1.61.19-1.26,1.57.28,1.07.65,2.11,1,3.16.61,1.8.61,1.8,2.48,1.8Zm-430,.58v0h19.1c3.95,0,7.89,0,11.84-.05a2.77,2.77,0,0,0,1.95-.64c1.14-1.58,2.06-3.3,3.05-5,.39-.68,0-1-.63-1-.42,0-.84,0-1.26,0H285.79q-21.93,0-43.88,0a7.63,7.63,0,0,1-3.06-.48c-.86-.39-1.21-.2-1.66.45-1.11,1.6-2.27,3.16-3.36,4.77a10,10,0,0,0-.77,1.65,11.21,11.21,0,0,0,1.8.28Q250.08,666.48,265.32,666.46Zm92.35,12v-.05h16.26l6.79,0c2.34,0,2.34,0,2.88-2.35.27-1.18.55-2.35.83-3.53.58-2.46.58-2.46-1.91-2.46l-44.35,0a6.09,6.09,0,0,0-1.42,0,1.84,1.84,0,0,0-1.12.67c-1,2.19-2,4.41-3,6.63-.28.64,0,1,.69,1l1.42,0Zm251.13-.57v0h17.83c2,0,4,0,6,0,1.44,0,1.56-.17,1.2-1.6s-.79-2.94-1.19-4.41c-.57-2.08-.57-2.09-2.78-2.09l-45.29,0c-.31,0-.63,0-.94,0-1-.06-1.3.45-1.12,1.37.32,1.6.61,3.2.93,4.8.38,2,.39,2,2.32,2Zm89.42-22.25v-.18h29.36a5.76,5.76,0,0,0,1.25-.08c.18,0,.45-.43.4-.51a18.57,18.57,0,0,0-2-3.19,3,3,0,0,0-2-.52q-28.65,0-57.31.06a5.41,5.41,0,0,0-1.56.14.93.93,0,0,0-.49.77c.18,2.41,1.38,3.51,3.79,3.51ZM275.91,678.52v0c4.89,0,9.78,0,14.67,0a2.11,2.11,0,0,0,2.22-1.35c.86-1.86,1.84-3.66,2.73-5.51.62-1.3.48-1.55-1-1.55l-28.39,0a2.23,2.23,0,0,0-2.08,1.15c-1.15,1.88-2.37,3.72-3.52,5.6a6.63,6.63,0,0,0-.5,1.42,8.3,8.3,0,0,0,1.37.22C266.24,678.53,271.08,678.52,275.91,678.52Zm-36.28.17v-.16h14a1.87,1.87,0,0,0,1.89-.81c1.29-2.11,2.66-4.17,3.95-6.28.57-.94.42-1.19-.63-1.3a7,7,0,0,0-.79,0c-9,0-18.08,0-27.12.07a2.5,2.5,0,0,0-1.7.83c-1.59,2.09-3.09,4.25-4.59,6.41-.63.91-.49,1.14.61,1.24.47,0,.95,0,1.42,0Zm484-9.14h-.79c-4.31,0-8.63,0-12.94.05-1.56,0-1.67.21-1.13,1.68s1,2.65,1.55,4c1,2.5,1,2.51,3.61,2.5l27-.08c.53,0,1.06,0,1.58,0,.95,0,1-.51.59-1.24-1.1-1.73-2.27-3.43-3.26-5.21a3.06,3.06,0,0,0-3.1-1.66C732.32,669.59,728,669.55,723.59,669.55Zm-411.28,8.93v0c4.73,0,9.47,0,14.2,0a2.09,2.09,0,0,0,2.26-1.5c.72-1.8,1.57-3.55,2.34-5.34.59-1.38.49-1.57-1-1.57-9.41,0-18.82,0-28.24,0a2,2,0,0,0-2.07,1.34c-.87,1.85-1.83,3.66-2.73,5.51-.7,1.42-.61,1.56,1,1.56Zm375.87-8.78v0c-4.89,0-9.78,0-14.67,0-1.55,0-1.66.17-1.17,1.66s1.06,3.09,1.6,4.62c.63,1.79.66,1.81,2.61,1.81h18.3c3.47,0,6.94,0,10.41,0,1.77,0,1.89-.21,1.27-1.81s-1.29-3.11-1.81-4.71a2.07,2.07,0,0,0-2.34-1.58C697.65,669.73,692.92,669.7,688.18,669.7Zm-33.93,8.14h2.37c4,0,8,0,12,0,1.79,0,1.9-.17,1.36-1.78s-1.18-3.37-1.74-5.07a1.61,1.61,0,0,0-1.73-1.26c-9.69,0-19.38,0-29.07,0-1.25,0-1.4.2-1.1,1.4.43,1.69,1,3.34,1.35,5a1.86,1.86,0,0,0,2.18,1.69C644.67,677.8,649.46,677.84,654.25,677.84Zm-54.76-11.78v0h13.73l1.42,0c.94,0,1.33-.42,1.18-1.38s-.25-2.09-.4-3.13c-.3-2.09-.31-2.1-2.46-2.1l-28.1,0c-.42,0-.84,0-1.26,0a1,1,0,0,0-1.05,1.22c.11,1.1.2,2.2.35,3.3.27,2,.4,2.08,2.39,2.09C590,666.07,594.76,666.06,599.49,666.06Zm161.29,11.51v0c4,0,8,0,12,0,1.32,0,1.45-.25.75-1.36-1.23-2-2.54-3.87-3.78-5.83a1.88,1.88,0,0,0-1.86-.87c-4.58,0-9.15,0-13.73,0-3.21,0-6.42,0-9.63,0-1.48,0-1.62.32-.86,1.56,1.08,1.75,2.23,3.45,3.28,5.21a2.33,2.33,0,0,0,2.31,1.27C753.1,677.55,756.94,677.57,760.78,677.57ZM529.05,666.14v0h4.26c3.37,0,6.73,0,10.1,0,1.08,0,1.52-.38,1.42-1.49s-.05-2.21-.08-3.31c-.06-1.66-.18-1.78-1.82-1.85-.47,0-.95,0-1.42,0l-21.14,0c-2,0-4.1.11-6.14.09-1.05,0-1.43.44-1.37,1.42s.1,2.1.15,3.15c.08,1.85.18,2,2,2Zm-176.46.22v0c4.68,0,9.36,0,14,0,1.25,0,2-.4,2.16-1.7.16-1.09.48-2.15.73-3.23.38-1.62.32-1.73-1.34-1.73h-14.5c-4.05,0-8.1,0-12.15,0a2.28,2.28,0,0,0-2.39,1.38c-.56,1.18-1.21,2.33-1.77,3.52-.73,1.55-.58,1.78,1.19,1.79C343.24,666.37,347.92,666.36,352.59,666.36Zm106.17-6.74h0c-4.1,0-8.2,0-12.3,0-4.44.07-4.1-1-4.17,4.25,0,2.23,0,2.28,2.29,2.28l27.76,0c.26,0,.52,0,.79,0,1.05.08,1.55-.36,1.51-1.46s0-2.31,0-3.47c0-1.57,0-1.59-1.55-1.6ZM564,666.1h4.26c3.21,0,6.42,0,9.63,0,1.08,0,1.56-.38,1.38-1.51s-.26-2-.33-3c-.15-2.15-.17-2.2-2.31-2.2q-12.78,0-25.57,0l-1.26,0a1.17,1.17,0,0,0-1.3,1.4c0,1.1,0,2.21.14,3.3.17,1.87.23,1.91,2.1,1.92Zm-141.38.08h3.94c3.48,0,6.95,0,10.42,0,1.51,0,1.62-.14,1.66-1.63,0-1.1,0-2.21,0-3.31s-.34-1.66-1.53-1.6-2.21,0-3.31,0c-8.21,0-16.42,0-24.63,0-1.61,0-1.79.19-2,1.78-.1.94-.2,1.88-.27,2.83-.14,1.74,0,1.92,1.76,1.92C413.31,666.19,417.94,666.18,422.57,666.18ZM635.43,666v-.13c4.64,0,9.27,0,13.9,0,1.4,0,1.47-.14,1.08-1.46-.31-1.06-.64-2.12-.94-3.18-.54-1.86-.53-1.88-2.48-1.88l-25.58,0c-.42,0-.84,0-1.26,0a.92.92,0,0,0-1,1.11c.1,1.1.19,2.2.34,3.29.27,2,.5,2.19,2.52,2.19C626.49,666,631,666,635.43,666Zm-317.9.41v0h13.25c.78,0,1.61.06,2-.85.72-1.58,1.46-3.15,2.19-4.72.29-.65.06-1-.64-1.07-.47,0-.94,0-1.42,0H320.48c-4.2,0-8.41,0-12.61,0a2.72,2.72,0,0,0-1.95.67c-1.12,1.58-2,3.32-3,5-.32.57-.06.9.55,1s.95,0,1.42,0Zm176.16-.27h0c4.62,0,9.25,0,13.87,0,1.65,0,1.79-.17,1.75-1.84,0-.84-.13-1.67-.19-2.51-.15-2.18-.15-2.19-2.39-2.19l-22.86,0H480.4c-1.78,0-1.8,0-2,1.85a26.86,26.86,0,0,0-.08,2.84c0,1.74.15,1.84,1.93,1.85Zm-106.06.06v0c4.63,0,9.26,0,13.88,0,1.14,0,1.64-.41,1.68-1.54,0-.94.13-1.88.24-2.82.22-2,.1-2.2-1.91-2.2H389.06c-4.47,0-8.95,0-13.41,0-1.27,0-2,.39-2.22,1.66-.2,1.09-.52,2.15-.75,3.22-.36,1.62-.31,1.69,1.38,1.7ZM263.44,656.05H272c4.26,0,8.53,0,12.79,0,1.32,0,2.24-.32,2.7-1.62a10.81,10.81,0,0,1,.66-1.26c.33-.67.26-1.12-.62-1.13h-.95q-21.48,0-43,0a2,2,0,0,0-1.32.6,22.41,22.41,0,0,0-1.66,2.3c-.46.68-.32,1.08.56,1.09h22.26Zm489.75,9.78h0c3.78,0,7.57,0,11.35,0a10.6,10.6,0,0,0,1.66-.26,10.24,10.24,0,0,0-.6-1.54c-.73-1.21-1.58-2.36-2.29-3.58a2.19,2.19,0,0,0-2.19-1.16c-5.2.06-10.4,0-15.6,0-2.42,0-4.83,0-7.25,0a11,11,0,0,0-1.51.24,8.82,8.82,0,0,0,.59,1.56c.69,1.18,1.49,2.29,2.17,3.47a2.36,2.36,0,0,0,2.32,1.26C745.62,665.8,749.41,665.83,753.19,665.83Zm-47.28-18.34v-.06c5.42,0,10.84,0,16.27,0a5.08,5.08,0,0,0,1.41-.08c.23-.07.57-.6.51-.71a16.43,16.43,0,0,0-2.35-3.51c-.51-.5-1.68-.43-2.55-.43q-15,.06-30,.18c-2.59,0-2.59,0-2,2.54.48,2.06.48,2.06,2.62,2.06Zm-441.69.87v-.17H280.3c2.31,0,3-.55,3.66-2.79.18-.61,0-.91-.6-.93l-1.27,0-19.39,0c-4.37,0-8.73,0-13.09,0a3.3,3.3,0,0,0-2,.65,10.13,10.13,0,0,0-1.6,2.14c-.45.64-.19,1,.52,1,.47,0,.95,0,1.42,0Zm305.34-5.13v0h-6c-2.47,0-4.94,0-7.4.07-.52,0-1.46.31-1.48.53a9.62,9.62,0,0,0,.19,3.39c.09.33,1.28.47,2,.47,8.41,0,16.81,0,25.22,0,.47,0,.94,0,1.41-.06a1,1,0,0,0,1-1.12c0-.42,0-.84,0-1.26-.16-1.94-.24-2-2.15-2Zm99.27,4.28h9.46l4.25,0c.81,0,1.18-.35,1-1.18-.08-.36-.12-.73-.2-1.08-.51-2.33-.51-2.33-2.83-2.33l-24.12,0c-2.66,0-2.66,0-2.45,2.72.14,1.75.24,1.86,2,1.86Zm-21.36,8.17v0h13.11a5.78,5.78,0,0,0,1.56-.11,1,1,0,0,0,.57-.72,3.39,3.39,0,0,0-3.74-3.57l-25.58.16a3.69,3.69,0,0,0-.94.05c-.22.06-.58.28-.57.4a11.25,11.25,0,0,0,.56,3.21c.18.41,1.25.59,1.92.6C638.73,655.7,643.1,655.68,647.47,655.68Zm-12-8.14v0c4.36,0,8.72,0,13.08,0,.52,0,1.47-.3,1.47-.48a11,11,0,0,0-.34-3.54c-.11-.34-1.28-.49-2-.49q-10.95,0-21.91.09c-1.21,0-2.41.11-3.62.09-1.05,0-1.41.49-1.37,1.44,0,.37,0,.74.07,1.1.19,1.81.19,1.83,2,1.84Zm-226.68,8.38v0h12.31c.68,0,1.36,0,2.05,0a1.11,1.11,0,0,0,1.24-1.27c0-.37.06-.74.08-1.11.09-1.58,0-1.72-1.61-1.72q-13.74,0-27.47,0c-1.65,0-2.18.79-2.15,3,0,1.49,1.2,1.08,2,1.09C399.78,656,404.3,655.92,408.83,655.92Zm-35,.05v0H384.1l3.79,0a1.37,1.37,0,0,0,1.59-1.35c0-.41.15-.83.2-1.24.17-1.41.08-1.56-1.37-1.56-9.05,0-18.09,0-27.14.05-.56,0-1.41.23-1.62.62a12.3,12.3,0,0,0-.92,3c0,.1.44.41.7.46a9.25,9.25,0,0,0,1.58.08Zm205.24-.25v0h10.43c1.21,0,2.42,0,3.63,0,.39,0,1.1-.41,1.09-.58a9.43,9.43,0,0,0-.62-3.2c-.18-.38-1.3-.44-2-.44q-12.79,0-25.59,0a8.43,8.43,0,0,0-1.42,0c-.28,0-.75.27-.76.41a12,12,0,0,0,.21,3.24c.09.33,1.15.55,1.76.55C570.24,655.74,574.66,655.72,579.08,655.72ZM536,647.81v0h6.78c2.21,0,4.42,0,6.63,0,1.06,0,1.46-.44,1.46-1.52,0-2.84,0-2.91-2.89-2.89l-22.55.16c-1,0-2.1,0-3.15,0-.37,0-1,.29-1,.47a9.74,9.74,0,0,0,.2,3.24c.1.34,1.25.52,1.93.53C527.54,647.83,531.75,647.81,536,647.81Zm76.87,3.58h-4.11c-3.15,0-6.31,0-9.47,0-.49,0-1.4.4-1.39.57a8.92,8.92,0,0,0,.62,3.19c.2.39,1.3.48,2,.48,8.57,0,17.15,0,25.72,0,.42,0,.84,0,1.26,0,.73,0,1-.45.9-1.16-.06-.37-.12-.73-.17-1.09-.29-2-.31-2-2.26-2Zm-67.88,4.34h3.31c3.42,0,6.84,0,10.26,0,.46,0,1.32-.25,1.33-.44a8.41,8.41,0,0,0-.16-3.25c-.12-.37-1.35-.54-2.07-.55q-12.93,0-25.87,0c-2.06,0-2.06,0-2,2.13,0,.11,0,.21,0,.32,0,1.7.11,1.79,1.8,1.79C536,655.74,540.47,655.73,544.94,655.73Zm-142.83-7.65v0h1.11c4,0,8.1,0,12.15-.07.59,0,1.6-.16,1.68-.46a6.89,6.89,0,0,0,.19-3.06c-.06-.31-1.22-.58-1.88-.58-8.52,0-17,0-25.56.06-2.13,0-2.14,0-2.54,2.12-.37,1.89-.29,2,1.6,2Zm339.25-.67v0h8.21c1.26,0,2.52,0,3.78,0,.91,0,1.12-.43.6-1.2s-1.08-1.56-1.54-2.38a2.3,2.3,0,0,0-2.34-1.2c-7,.06-14,.06-21,.11a25.89,25.89,0,0,0-2.76.31c.39.87.79,1.74,1.18,2.62a3.07,3.07,0,0,0,3.29,1.86C734.3,647.34,737.83,647.41,741.36,647.41ZM511,655.74h13.1c1.8,0,1.8,0,1.78-1.88,0-.11,0-.21,0-.32,0-2,0-2-2.11-2l-18.93,0c-2.37,0-4.74,0-7.1.05-.51,0-1.42.17-1.44.34a10.93,10.93,0,0,0,0,3.23c.06.29,1,.57,1.56.57C502.27,655.76,506.63,655.74,511,655.74Zm91.89-8.07v-.12h12c2.64,0,2.3,0,2.25-2.32,0-2-.06-2.05-2.17-2.05l-24.61,0a6.61,6.61,0,0,0-1.26,0c-.28.05-.75.27-.75.42a12.42,12.42,0,0,0,.16,3.4c.09.34,1.26.54,1.93.55C594.59,647.69,598.74,647.67,602.89,647.67Zm-100.45.16h5.83c2.53,0,5.05,0,7.57,0,.47,0,1.32-.26,1.34-.46a8.42,8.42,0,0,0-.14-3.25c-.11-.36-1.34-.53-2.06-.53-8.21,0-16.41,0-24.61,0-.42,0-.84,0-1.26,0-1,0-1.51.36-1.44,1.39,0,.26,0,.53,0,.79,0,2,0,2.06,2,2.07Zm-33.59,0v0h12.61c2.38,0,2.38,0,2.36-2.33,0-.11,0-.21,0-.32.13-1.15-.41-1.62-1.54-1.6-1.69,0-3.37,0-5,0q-10.73.09-21.45.2c-.54,0-1.5.16-1.55.38a8.14,8.14,0,0,0,0,3.07c.06.31,1.12.56,1.73.57C460.23,647.88,464.54,647.86,468.85,647.86Zm-128,3.95v.07H329.06c-2.72,0-2.72,0-3.61,2.54-.48,1.35-.37,1.51,1.12,1.57h.79L352,656c2.29,0,2.29,0,3-2.13.66-1.9.58-2-1.49-2Zm136.15,4h13.09a6,6,0,0,0,1.41-.07,1.17,1.17,0,0,0,.74-.63c.73-2.3-.13-3.48-2.51-3.47q-12.93,0-25.86.13a8,8,0,0,0-1.1,0c-.25,0-.68.15-.69.27a12.8,12.8,0,0,0-.19,3.08c.12.93,1.07.65,1.7.65C468.09,655.77,472.56,655.76,477,655.76ZM435.84,648v-.15c4.21,0,8.42,0,12.64,0,.53,0,1.49-.2,1.53-.42a8.23,8.23,0,0,0,0-3.09c-.07-.29-1.15-.5-1.77-.5-8.27,0-16.53,0-24.8,0a6.61,6.61,0,0,0-1.26.06c-.28.06-.73.26-.75.44a9.77,9.77,0,0,0-.12,3.09c.06.3,1.25.53,1.92.54C427.42,648,431.63,648,435.84,648Zm-128.59,3.91V652c-4.42,0-8.83,0-13.25,0a2.12,2.12,0,0,0-1.56.63,8.3,8.3,0,0,0-1,2.45,1,1,0,0,0,.5.82,3.38,3.38,0,0,0,1.24.07l25.23,0A7.45,7.45,0,0,0,320,656a1.66,1.66,0,0,0,1-.63,11.63,11.63,0,0,0,1-2.48c.07-.22-.28-.71-.54-.83a3.22,3.22,0,0,0-1.25-.09Zm61-3.8v0c4.36,0,8.73,0,13.09,0,1,0,1.68-.22,2-1.35.63-2.64.57-2.78-2.16-2.76l-24.3.14c-2.21,0-2.21,0-2.82,2.24-.44,1.61-.36,1.73,1.29,1.74C359.62,648.14,363.93,648.12,368.25,648.12Zm74.83,7.66h6.31c2.37,0,4.74,0,7.1,0,1.19,0,1.63-.48,1.59-1.58,0-.26,0-.53,0-.79-.06-1.55-.18-1.7-1.75-1.7q-13.18,0-26.36,0c-1.53,0-1.59.1-1.66,1.61,0,.15,0,.31,0,.47-.05,1.94-.05,1.95,1.83,1.95Zm-108.17-7.63v0c4.31,0,8.62,0,12.93,0,.58,0,1.5-.09,1.69-.44a11.56,11.56,0,0,0,.9-3c0-.11-.41-.43-.66-.48a7.44,7.44,0,0,0-1.42-.05l-25.23,0-1.26,0a1.09,1.09,0,0,0-1.24,1.11,5.56,5.56,0,0,1-.2,1.08c-.43,1.71-.43,1.73,1.4,1.74Zm411.81,7.3h0c3.47,0,6.94,0,10.41,0a17.63,17.63,0,0,0,2.39-.34c-.35-.68-.73-1.36-1-2.06-.7-1.54-1.85-2-3.53-2-7,.09-14,0-21,.06a22.61,22.61,0,0,0-2.31.24c.32.75.63,1.5.94,2.24.65,1.52,1.8,1.93,3.41,1.88C739.56,655.38,743.14,655.45,746.72,655.45Zm-445.48-7.27v0h12.47c2.11,0,2.11,0,2.82-1.94.11-.3.21-.6.32-.89.22-.65,0-1-.69-1.07-.47,0-1,0-1.42,0-7.94.07-15.88.19-23.82.16-1.71,0-2.72.42-3.32,2.08s-.68,1.71,1.18,1.71C292.94,648.19,297.09,648.18,301.24,648.18ZM339,637.52h0c-4.47,0-8.93,0-13.4,0a1.91,1.91,0,0,0-1.87,2.19c.08,1.19,1.08.78,1.7.78q12.21,0,24.43-.09c.63,0,1.27,0,1.89-.06a1.67,1.67,0,0,0,1.59-2.05c-.09-1.12-1-.75-1.57-.76C347.52,637.51,343.27,637.52,339,637.52Zm-49.77,3.09v-.05c4.32,0,8.64,0,12.95,0,.55,0,1.33,0,1.6-.39a9.7,9.7,0,0,0,1-2.25,9.69,9.69,0,0,0-1.9-.38c-8.31,0-16.63,0-24.95,0a10,10,0,0,0-1.1,0A2.69,2.69,0,0,0,275,640c.19,1.06,1.17.62,1.8.62C280.92,640.63,285.08,640.61,289.24,640.61Zm114.05-.37v-.09H417.5c1,0,1.43-.43,1.43-1.43s-.63-1.19-1.45-1.19H390.16c-1.21,0-1.62.5-1.68,1.76s.92.92,1.55.92C394.45,640.26,398.87,640.24,403.29,640.24Zm-32.05-2.71c-4.15,0-8.3,0-12.45,0-1.29,0-1.73.52-1.72,1.87s1,.87,1.62.87c6.14,0,12.29,0,18.43,0,2,0,4,0,6,0,1.06,0,1.63-.73,1.62-1.88s-.94-.8-1.52-.8C379.22,637.51,375.23,637.53,371.24,637.53Zm66.35,0H424c-.88,0-1.39.25-1.38,1.26s.48,1.31,1.36,1.32c.58,0,1.16,0,1.73,0q12-.07,24-.18c.42,0,.84,0,1.26,0,1.06-.08,1.63-1,1-1.82a2.08,2.08,0,0,0-1.48-.56C446.21,637.52,441.9,637.54,437.59,637.54Zm64.91,0H490.2c-.48,0-.95,0-1.42,0s-1.12,0-1,.82.08,1.31.92,1.45a7.4,7.4,0,0,0,.94,0l25.56-.12a2.65,2.65,0,0,0,1.24-.13,1.5,1.5,0,0,0,.7-1,1.37,1.37,0,0,0-.73-1,3.59,3.59,0,0,0-1.4-.09Zm-32.24,0h-8.21l-5.05,0a.92.92,0,0,0-1,1.09c0,.68.18,1.27,1,1.26l.94,0,24,0a3.7,3.7,0,0,0,1.25-.08,1.47,1.47,0,0,0,.84-.74c.4-1.09.07-1.53-1.16-1.53C478.67,637.53,474.46,637.55,470.26,637.55Zm-209.7,3.25v-.09c2.63,0,5.25-.06,7.88,0a2.47,2.47,0,0,0,2.72-1.83c.45-1.21.42-1.38-.89-1.38-5.15,0-10.29,0-15.44,0a3,3,0,0,0-3.07,1.71c-.2.4-.36.83-.54,1.24a5.57,5.57,0,0,0,1.31.32C255.2,640.81,257.88,640.8,260.56,640.8Zm11.6-7.15h4.1c3.53,0,7.06,0,10.59,0,1,0,1.56-.34,1.48-1.34-.09-1.18-1.09-.77-1.73-.78q-13.89,0-27.79,0c-.37,0-.86-.12-1.08.07a14.69,14.69,0,0,0-1.5,1.65,6.37,6.37,0,0,0,1.56.39C262.58,633.66,267.37,633.65,272.16,633.65Zm263.19,6v0h12.31a4.38,4.38,0,0,0,1.41-.08c.31-.11.72-.54.71-.81a1.39,1.39,0,0,0-.66-1,4.17,4.17,0,0,0-1.55-.12H523.11a3.38,3.38,0,0,0-1.4.11,1.37,1.37,0,0,0-.69,1c0,.32.43.76.78.9a4.05,4.05,0,0,0,1.4.07Zm32.54,0v-.06h11.82a5,5,0,0,0,1.56-.09c.35-.12.8-.59.78-.88a1.37,1.37,0,0,0-.81-.91,3.81,3.81,0,0,0-1.4-.09h-24a4.48,4.48,0,0,0-1.56.12,1,1,0,0,0,0,1.81,3.81,3.81,0,0,0,1.4.1Zm33-.1v-.18h9.78c1.27,0,2.53,0,3.79-.06.34,0,.65-.46,1-.7-.3-.31-.54-.72-.9-.89a3.23,3.23,0,0,0-1.25-.08l-25.24,0a3.44,3.44,0,0,0-1.25.09c-.31.13-.71.52-.72.8a1.26,1.26,0,0,0,.64.9,3,3,0,0,0,1.24.13Zm32.91-.2v0c4.25,0,8.51,0,12.76,0,.66,0,1.86.49,1.81-.8s-1.18-.83-1.89-.83c-8.4,0-16.81,0-25.21,0a3.17,3.17,0,0,0-1.24.11,1.26,1.26,0,0,0-.7.84c0,.23.45.6.77.71a4,4,0,0,0,1.25,0Zm33,0v-.11c4.11,0,8.21,0,12.31,0a4,4,0,0,0,2-.61c-.12-1.25-1.22-.86-2-.86q-12.37-.06-24.76,0c-.69,0-1.87-.36-1.88.78s1.15.81,1.87.82C658.48,639.27,662.63,639.26,666.78,639.26ZM609,633.91h11.37a3.7,3.7,0,0,0,1.25,0,3.79,3.79,0,0,0,.94-.78,4.31,4.31,0,0,0-1-.81,2.81,2.81,0,0,0-1.09-.06l-23.37,0a3.06,3.06,0,0,0-1.1.08c-.28.11-.68.49-.65.69a1.3,1.3,0,0,0,.67.86,4.38,4.38,0,0,0,1.41.1Zm31.35,0h11.5a4,4,0,0,0,1.25-.06c.33-.11.57-.46.85-.7-.27-.27-.5-.64-.83-.76a3.39,3.39,0,0,0-1.24-.11l-23.32-.07a2.39,2.39,0,0,0-.93,0,5.37,5.37,0,0,0-1,.74c.31.29.58.71,1,.85a4.68,4.68,0,0,0,1.41.07ZM342,633.77v0c2.52,0,5,0,7.57,0,.77,0,2,.44,2.1-.93s-1.23-1.16-2.08-1.17c-5.15,0-10.3,0-15.45-.06-.36,0-.82-.09-1.08.09a1.93,1.93,0,0,0-.83,1.09c0,.25.45.73.8.87a3.8,3.8,0,0,0,1.4.11ZM702,639v0H716.7a5.86,5.86,0,0,0,1.26,0,2.8,2.8,0,0,0,.83-.48c-.25-.23-.47-.59-.76-.66a9.06,9.06,0,0,0-1.88-.14l-28.73,0a4,4,0,0,0-1.25.06,4.31,4.31,0,0,0-1,.72,7.31,7.31,0,0,0,1.1.59,2.94,2.94,0,0,0,.94,0ZM547.3,633.89h0c3.73,0,7.46,0,11.19,0,.69,0,1.82.38,1.79-.89s-1.16-.82-1.83-.82c-7.41,0-14.82,0-22.23,0a3.29,3.29,0,0,0-1.09.06c-.28.11-.69.45-.68.66a1.29,1.29,0,0,0,.58.93,3.77,3.77,0,0,0,1.4.11Zm125.18,0H685a4.71,4.71,0,0,0,1.25,0c.28-.08.68-.41.68-.63s-.34-.59-.61-.73a2.17,2.17,0,0,0-.93-.07l-25.43-.13a3.7,3.7,0,0,0-1.25.1c-.31.12-.54.49-.8.75.29.24.54.59.88.7a4,4,0,0,0,1.25.06Zm-243.85-2.07H419.8c-.74,0-1.4.08-1.39,1s.73.91,1.34.91q8.83,0,17.66,0c.67,0,1.46,0,1.48-1,0-1.18-.91-1-1.59-1C434.41,631.84,431.52,631.85,428.63,631.85Zm150.67,2h0c3.52,0,7.05,0,10.57,0,.62,0,1.55.21,1.51-.86s-.91-.81-1.57-.86H569a2.23,2.23,0,0,0-.94.07c-.27.14-.61.47-.62.72a1,1,0,0,0,.53.8,4,4,0,0,0,1.4.14Zm-59.91-1.78V632h-2.84c-2.42,0-4.84,0-7.26,0-.57,0-1,.19-1.05.9s.43.88,1,.91l.79,0h18.48a2.6,2.6,0,0,0,1.09-.07,1.73,1.73,0,0,0,.81-.9c.05-.16-.45-.61-.78-.73a3.69,3.69,0,0,0-1.25-.06Zm-155-.33v-.11h-2.68c-1.68,0-3.37,0-5.05,0-.59,0-1.19.09-1.18.93s.45,1.11,1.19,1.13c.31,0,.63,0,.95,0h13.41a4.71,4.71,0,0,0,1.55-.18,1.05,1.05,0,0,0,.49-.83,1.14,1.14,0,0,0-.5-.85,2.24,2.24,0,0,0-1.08-.13Zm88,2.05h5.36c1.2,0,2.41,0,3.61-.1a1.07,1.07,0,0,0,.75-.76,1.47,1.47,0,0,0-.59-1,1.59,1.59,0,0,0-.92-.14q-8.19,0-16.39,0c-.69,0-1.42,0-1.45,1s.78,1,1.43,1C447,633.85,449.7,633.84,452.44,633.84Zm22.54,0c2.36,0,4.73,0,7.09,0,.74,0,1.92.39,1.95-.92s-1.16-1-1.91-1c-4.73-.05-9.46-.05-14.18-.05a3.44,3.44,0,0,0-1.25.11c-.27.11-.62.51-.6.75a1.31,1.31,0,0,0,.57,1,3.35,3.35,0,0,0,1.39.15Zm-174-2.31v0h-6.77c-.92,0-1.94,0-1.92,1.25s1.13.84,1.8.85c3,.05,6.08,0,9.12,0,1.68,0,3.35,0,5,.05a1.11,1.11,0,0,0,1.27-1.24c0-1-.69-.91-1.3-.91C305.75,631.55,303.34,631.56,300.93,631.56Zm85,.25h0c-2.31,0-4.62,0-6.93,0-.78,0-2-.47-2,1,0,1.3,1.21.94,2,.95,4.57,0,9.13,0,13.7,0a3.17,3.17,0,0,0,1.24-.11,1.23,1.23,0,0,0,.66-.85,1.29,1.29,0,0,0-.62-.93,3,3,0,0,0-1.24-.1Zm-65.21,2v0c2.1,0,4.2,0,6.3,0,.65,0,1.27-.11,1.3-1s-.62-1.1-1.35-1.11c-1.58,0-3.15,0-4.73,0-2.41,0-4.83,0-7.24,0-1.25,0-1.74.44-1.67,1.36.08,1.08,1,.78,1.56.8C316.83,633.79,318.78,633.76,320.72,633.76Zm415.17,3.88v0c-3.68,0-7.36,0-11,0a6.62,6.62,0,0,0-1.78.54c.33,1,1.18.74,1.87.74l21.93-.06a5.76,5.76,0,0,0,1.25-.11c.2,0,.49-.31.49-.47a.8.8,0,0,0-.43-.57,2.38,2.38,0,0,0-.93-.1Zm-3.38-5.16h0c-3.94,0-7.88,0-11.81,0-.34,0-.66.31-1,.48a4.42,4.42,0,0,0,.82.85,2,2,0,0,0,.93.09c7.56,0,15.12,0,22.69,0a4.38,4.38,0,0,0,1.31-.49,7.49,7.49,0,0,0-1.3-.89,3.69,3.69,0,0,0-1.25,0Zm-418.8,8.07v0c1.57,0,3.15,0,4.72,0a2.23,2.23,0,0,0,1.68-2.31c-.13-1.1-1.06-.64-1.63-.65-2.46-.06-4.93.05-7.39,0a2.2,2.2,0,0,0-2.47,1.63c-.46,1.23-.43,1.39.84,1.42C310.88,640.58,312.29,640.55,313.71,640.55Zm389.57-6.63h6.78c1.58,0,3.16,0,4.74,0,.28,0,.55-.31.83-.47-.22-.28-.39-.7-.67-.8a5,5,0,0,0-1.55-.15q-10.26,0-20.51,0a4,4,0,0,0-1.1,0,3.23,3.23,0,0,0-.81.55c.25.28.47.67.79.8a3.38,3.38,0,0,0,1.24.08Zm-207.16,0h0c2.21,0,4.42,0,6.63,0,.65,0,1.49.12,1.55-.89s-.83-.87-1.45-1a4.42,4.42,0,0,0-.63,0l-12.32,0-.95,0c-.59,0-1.13.28-.94.93a1.88,1.88,0,0,0,1,.91,3.42,3.42,0,0,0,1.25.06Zm-89.51-2h0c-2.26,0-4.52,0-6.77,0-.59,0-1.37-.15-1.39.83s.6,1.14,1.36,1.14h13.37c.68,0,1.44,0,1.39-1s-.86-.9-1.51-.91C410.91,631.82,408.76,631.83,406.61,631.83Z" transform="translate(-137.08 -248.76)"/><path d="M481.68,721.73q-34.18,0-68.38,0c-15.74,0-31.48.14-47.22.2a20.63,20.63,0,0,1-2.84-.11,2.72,2.72,0,0,1-2.49-3.73c.69-2.48,1.52-4.93,2.29-7.38,2.25-7.13,4.57-14.23,6.72-21.39a6,6,0,0,1,5.94-4.49c1.57,0,3.15.14,4.72.14q16.27,0,32.54,0l171.36-.16,5.84,0c3.43,0,5.55,1.7,6.28,5q2.91,13.41,5.79,26.84c.64,3-.4,4.19-3.52,4.2-18,.06-36,.17-54,.2q-31.5,0-63,0ZM486,706.65c8.38-.08,20.81-.24,33.23-.32q37-.23,74.08-.4l1.27,0c1,0,1.43-.37,1.16-1.46-.41-1.63-.7-3.29-1.06-4.94-.63-2.93-1.25-5.86-1.92-8.79-.23-1-.65-1.92-1.9-2s-2.41-.25-3.62-.25q-44.38.07-88.77.16-60.9.06-121.79.06c-2.32,0-2.85.33-3.55,2.51-1.54,4.81-3.05,9.63-4.57,14.45-.49,1.58-.37,1.78,1.25,1.77,3,0,6-.12,9-.14q23.15-.18,46.28-.32C444.05,706.85,463,706.77,486,706.65Zm54.89,11v-.3h8.36l46-.11c.68,0,1.36,0,2,0s1.13-.42,1-1.22c-.3-1.39-.57-2.78-.87-4.17-.5-2.27-.51-2.29-2.89-2.26-7.05.07-14.1.18-21.15.23l-49.89.33c-12.26.07-24.53.1-36.79.16-.58,0-1.15,0-1.73,0-.9,0-1.35.4-1.31,1.36.05,1.15,0,2.31,0,3.47,0,2.51,0,2.51,2.51,2.51Zm-118.73.6v-.43h49.43c2.26,0,4.52-.07,6.79-.06,1.06,0,1.52-.46,1.47-1.53-.07-1.58-.1-3.15-.14-4.73a1,1,0,0,0-1.07-1.06c-.58,0-1.15,0-1.73,0l-44.85.3c-20.21.13-40.42.22-60.63.38-5.57.05-4.21-1-6,4.44-.89,2.69-.85,2.7,1.94,2.7Z" transform="translate(-137.08 -248.76)"/><path d="M543.35,331.8a7.16,7.16,0,0,1-.71,1.21,11.93,11.93,0,0,1-1.28,1.17c-1.11,1-1.1,1,0,2,.24.21.49.4.72.62,1.18,1.1,1.42,2.15.71,3s-1.86.85-3.21-.23a10.59,10.59,0,0,1-1.19-1c-.78-.84-1.49-.76-2.28,0a13.91,13.91,0,0,1-1.83,1.5,2,2,0,0,1-2.73,0c-.66-.75-.51-1.87.43-2.8a20,20,0,0,1,1.54-1.36c.65-.53.61-1,0-1.53a10.53,10.53,0,0,1-1.36-1.31,1.71,1.71,0,0,1-.11-2.32,1.67,1.67,0,0,1,2.39-.36,15.53,15.53,0,0,1,2,1.55,1.19,1.19,0,0,0,1.8,0,17.09,17.09,0,0,1,2.48-1.94C542,329.24,543.38,330.05,543.35,331.8Z" transform="translate(-137.08 -248.76)"/></g></svg>