<svg id="Geometric_shape" data-name="Geometric shape" xmlns="http://www.w3.org/2000/svg" viewBox="0 0 1500 1500"><g fill="#fff" id="Shape_15" data-name="Shape 15"><g id="g11622"><g id="g11686"><path d="M432.39,1138.76c-12.9-10.54-25.46-21.91-37.35-33.8s-23.26-24.45-33.8-37.35l3.1-2.53a501.6,501.6,0,0,0,70.58,70.58Z"/><path d="M512.91,1192.49c-41.08-22-81.63-52.48-117.27-88.13s-66.12-76.19-88.13-117.27L311,985.2c21.82,40.74,52.06,81,87.43,116.33s75.59,65.61,116.33,87.43Z"/><path d="M566.13,1217.12c-59-23.22-117.4-62.74-169-114.29s-91.07-110-114.29-169l3.72-1.46c23,58.47,62.23,116.42,113.4,167.59s109.12,90.38,167.59,113.39Z"/><path d="M612,1232.66c-72.3-20.67-147.71-67.66-212.35-132.3S288,960.31,267.34,888l3.85-1.09c20.48,71.64,67.11,146.44,131.28,210.61s139,110.8,210.61,131.28Z"/><path d="M654,1242.74c-41.29-8-84.36-25-128-50.34S441,1135,403,1097,333,1017.62,307.6,974s-42.3-86.75-50.34-128l3.92-.77c8,40.85,24.74,83.51,49.88,126.79s57.07,84.42,94.8,122.15,78.83,69.63,122.15,94.8,85.94,41.92,126.79,49.88Z"/><path d="M693.64,1248.83c-45.23-5.11-95.35-22.11-144.92-49.16s-98.4-64-141.38-107-80-91.87-107-141.38-44.05-99.69-49.16-144.92l4-.45c5,44.73,21.89,94.33,48.69,143.45s63.61,97.75,106.33,140.47,91.29,79.49,140.47,106.33,98.72,43.64,143.45,48.69Z"/><path d="M731.47,1251.66c-49.05-1.81-104.42-17.94-160.13-46.65S460.8,1135.7,412.55,1087.45,323.65,984.29,295,928.66s-44.84-111.08-46.65-160.13l4-.15c1.79,48.46,17.76,103.25,46.2,158.44s68.88,109.84,116.84,157.8,102.53,88.36,157.8,116.84,110,44.41,158.44,46.2Z"/><path d="M759.07,1251.84c-50.14,0-107-14.86-165.08-43.22-61.43-30-122.06-74-175.33-127.28S321.37,967.44,291.38,906s-44.92-121.65-43.06-173.88l4,.15c-1.83,51.57,12.92,111,42.67,172s73.54,121.29,126.51,174.25S534.71,1175.23,595.74,1205s120.4,44.5,172,42.67l.15,4C765,1251.79,762,1251.84,759.07,1251.84Z"/><path d="M777.23,1250.53c-48.82,0-103.73-13.61-160.52-39.94-66.91-31-133-78.14-191.07-136.23S320.44,950.2,289.41,883.29,245,751.83,250.81,697l4,.42C249,751.53,262.26,815.23,293,881.6s77.66,132.17,135.42,189.93S551.9,1176.13,618.4,1207s130.07,44,184.21,38.25l.42,4A244.33,244.33,0,0,1,777.23,1250.53Z"/><path d="M795.29,1247.91c-47.39,0-100.41-12.49-155.75-36.91-72.11-31.81-143.37-81.77-206.07-144.47S320.81,932.57,289,860.46s-43.43-140.55-33.39-197.53l3.94.69c-9.9,56.2,1.55,123.71,33.11,195.23S374,1001.35,436.3,1063.7s133.19,112,204.85,143.64,139,43,195.23,33.11l.69,3.94A240.72,240.72,0,0,1,795.29,1247.91Z"/><path d="M813.28,1244c-45.91,0-97-11.47-150.83-34.07-77-32.38-153.2-85-220.31-152.06S322.46,914.57,290.08,837.55c-32.44-77.19-41.95-149-27.52-207.59l3.89,1C252.22,688.7,261.67,759.61,293.77,836c32.17,76.55,84.46,152.28,151.2,219s142.49,119,219,151.2,147.3,41.55,205.08,27.32l1,3.89A237.14,237.14,0,0,1,813.28,1244Z"/><path d="M831.52,1238.69a307.5,307.5,0,0,1-31.08-1.62c-36.39-3.71-75.08-13.7-115-29.69-81.65-32.71-162.5-87.7-233.81-159s-126.3-152.16-159-233.81c-16-39.92-26-78.61-29.69-115-3.81-37.36-.91-71.51,8.62-101.51l3.81,1.21c-9.36,29.48-12.2,63.09-8.45,99.89,3.67,36,13.58,74.35,29.43,113.92,32.51,81.15,87.18,161.54,158.12,232.47s151.32,125.61,232.47,158.12c39.57,15.85,77.9,25.75,113.92,29.43,36.8,3.75,70.41.91,99.89-8.45l1.21,3.81C880.48,1235.27,856.89,1238.69,831.52,1238.69Z"/><path d="M849.27,1232.15q-10.17,0-20.71-.72c-37.75-2.58-78.15-12-120.09-28s-84.17-38.12-125.66-65.77A811.58,811.58,0,0,1,362.36,917.19c-27.65-41.49-49.78-83.76-65.77-125.66s-25.44-82.34-28-120.09c-2.65-38.81,2-73.88,13.89-104.24l3.73,1.46C274.54,598.46,270,633,272.56,671.17c2.55,37.35,11.89,77.37,27.76,118.94S338.21,873.73,365.69,915A807.59,807.59,0,0,0,585,1134.31c41.24,27.48,83.25,49.48,124.86,65.37s81.59,25.21,118.94,27.76c38.22,2.61,72.71-2,102.51-13.63l1.46,3.73C907.94,1227.25,879.92,1232.15,849.27,1232.15Z"/><path d="M866.75,1224.33q-5.24,0-10.57-.19c-38.93-1.36-80.88-10.13-124.69-26.07-88.75-32.29-180.58-93-258.56-171s-138.71-169.81-171-258.56C286,724.7,277.22,682.75,275.86,643.82c-1.41-40.09,5.11-75.88,19.36-106.38l3.62,1.7c-14,29.92-20.37,65.09-19,104.54,1.35,38.51,10,80,25.84,123.46,32.1,88.22,92.5,179.53,170.07,257.1s168.88,138,257.1,170.07c43.42,15.79,84.95,24.49,123.46,25.84,39.44,1.38,74.62-5,104.54-19l1.7,3.62C934.77,1217.77,902.58,1224.33,866.75,1224.33Z"/><path d="M883.74,1215.17c-39.73,0-83.43-7.93-129.26-23.8-92.47-32-188.28-94.55-269.79-176.06S340.66,838,308.63,745.52c-32.12-92.72-31.72-176.79,1.11-236.72l3.51,1.93c-32.28,58.92-32.58,141.84-.84,233.48,31.83,91.91,94,187.18,175.11,268.27s176.36,143.28,268.27,175.11c91.64,31.74,174.56,31.44,233.48-.84l1.93,3.51C960.89,1206.86,924.39,1215.17,883.74,1215.17Z"/><path d="M900.54,1204.91c-37.9,0-79.46-7.17-123.17-21.56-95.87-31.58-195.39-95.68-280.21-180.51S348.23,818.5,316.65,722.63C285,626.47,288.29,540.77,326,481.33l3.38,2.14c-37,58.41-40.17,142.9-8.88,237.91C351.83,816.67,415.59,915.62,500,1000s183.35,148.15,278.64,179.53c95,31.29,179.5,28.13,237.91-8.88l2.14,3.38C986.25,1194.59,946,1204.91,900.54,1204.91Z"/><path d="M917,1193.46c-36,0-75.38-6.45-116.89-19.42-99-30.94-201.92-96.4-289.84-184.33S356.9,798.86,326,699.87c-31-99.3-24.71-186.24,17.82-244.81l3.24,2.35c-41.77,57.52-47.89,143.21-17.24,241.27,30.75,98.38,95.86,200.73,183.33,288.21s189.83,152.58,288.21,183.33c98.06,30.65,183.75,24.53,241.27-17.24l2.35,3.24C1010.86,1181,967.16,1193.46,917,1193.46Z"/><path d="M933.11,1180.83c-34.08,0-71.19-5.75-110.42-17.36C720.91,1133.34,614.84,1066.75,524.05,976S366.66,779.09,336.53,677.31c-30.22-102.14-20.76-189.95,26.64-247.26l3.08,2.55c-46.52,56.25-55.71,142.75-25.88,243.57,29.94,101.16,96.17,206.62,186.51,297s195.79,156.57,297,186.51c100.82,29.83,187.32,20.64,243.57-25.88l2.55,3.08C1034.65,1166,987.77,1180.83,933.11,1180.83Z"/><path d="M948.79,1167.06c-32.09,0-66.91-5.09-103.77-15.39C740.74,1122.54,631.85,1055,538.4,961.6S377.46,759.26,348.33,655c-29.23-104.66-16.55-193,35.72-248.61L387,409.1c-51.28,54.61-63.63,141.54-34.79,244.8,28.95,103.63,96.09,211.9,189.05,304.87s201.24,160.1,304.87,189c103.26,28.84,190.19,16.49,244.8-34.79l2.73,2.92C1057.57,1149.81,1007.81,1167.06,948.79,1167.06Z"/><path d="M963.19,1152c-61.6,0-131.71-18.69-203-54.15-72.47-36-144-88.3-206.85-151.16S438.19,812.3,402.16,739.83,347.36,596,348,533.58c.68-62.61,20.85-114.32,58.35-149.53L409.1,387c-36.68,34.44-56.42,85.15-57.08,146.65-.66,61.74,17.92,132.43,53.72,204.43S493.6,881.3,556.15,943.85,689.86,1058.41,762,1094.26s142.72,54.37,204.43,53.72c61.5-.66,112.21-20.4,146.65-57.08l2.92,2.73c-35.21,37.5-86.92,57.67-149.53,58.34C965.35,1152,964.27,1152,963.19,1152Z"/><path d="M977.53,1136c-60,0-128-17.73-197.56-51.59-74-36-147-89-211.22-153.18S451.59,794,415.57,720s-53.83-146.44-51.36-209.2c2.48-63,25.25-114.09,65.84-147.66l2.55,3.08c-39.69,32.83-62,82.88-64.39,144.73-2.45,62.11,15.17,133.8,51,207.3S507.7,864.55,571.58,928.42,708.12,1045,781.72,1080.83s145.19,53.4,207.3,51c61.85-2.43,111.9-24.7,144.73-64.39l3.08,2.55c-33.57,40.59-84.63,63.36-147.66,65.84C985.33,1135.94,981.44,1136,977.53,1136Z"/><path d="M991.23,1119c-58.21,0-123.94-16.75-191.53-48.94-75.32-35.88-149.68-89.39-215-154.75s-118.87-139.71-154.75-215-52.62-148.56-48.26-211.48c4.38-63.2,29.76-113.35,73.41-145l2.35,3.24c-42.66,31-67.48,80.1-71.77,142.07-4.31,62.24,12.25,134.68,47.88,209.49s88.93,148.9,154,213.93,139,118.28,213.93,154,147.25,52.19,209.49,47.88c62-4.29,111.1-29.11,142.07-71.77l3.24,2.35c-31.69,43.65-81.84,69-145,73.41Q1001.37,1119,991.23,1119Z"/><path d="M1004.27,1101.06c-56.24,0-119.55-15.74-185-46.2C742.86,1019.26,667.37,965.37,601,899S480.74,757.14,445.14,680.69,394,530.44,400.31,467.6c6.36-63.11,34.37-112.1,81-141.65l2.14,3.38c-45.57,28.87-73,76.82-79.18,138.67-6.25,62.12,9.13,135.09,44.48,211s89,151.13,155.06,217.17S745,1015.83,821,1051.23s148.88,50.73,211,44.48c61.85-6.23,109.8-33.61,138.67-79.18l3.38,2.14c-29.55,46.65-78.54,74.66-141.65,81A281.32,281.32,0,0,1,1004.27,1101.06Z"/><path d="M1016.63,1082.18c-54.11,0-114.83-14.74-177.88-43.4-77.37-35.18-153.8-89.3-221-156.52s-121.34-143.64-156.52-221-49.43-151.51-41.06-214c8.4-62.79,39.06-110.33,88.64-137.5l1.93,3.51c-48.43,26.53-78.38,73.05-86.61,134.52-8.27,61.75,5.82,135,40.74,211.82s88.83,153,155.7,219.85,142.9,120.71,219.85,155.7,150.06,49,211.82,40.74c61.47-8.23,108-38.18,134.52-86.61l3.51,1.93c-27.17,49.58-74.71,80.24-137.5,88.64A270.78,270.78,0,0,1,1016.63,1082.18Z"/><path d="M1028.28,1062.43c-51.82,0-109.8-13.72-170.29-40.54-78.1-34.62-155.27-88.81-223.17-156.71S512.73,720.11,478.11,642s-47.47-152.32-37-214.23c10.54-62.2,43.85-108,96.3-132.56l1.7,3.62c-51.22,23.94-83.74,68.76-94.06,129.6-10.36,61.14,2.32,134.43,36.68,212s88.33,154.41,155.89,222,144.31,121.46,222,155.89,150.81,47,211.95,36.68c60.84-10.32,105.66-42.84,129.6-94.06l3.62,1.7c-24.52,52.45-70.36,85.76-132.56,96.3A263.08,263.08,0,0,1,1028.28,1062.43Z"/><path d="M1039.2,1041.86c-49.36,0-104.48-12.7-162.22-37.61-78.63-33.92-156.35-88-224.78-156.45S529.67,701.65,495.75,623s-45.24-152.69-32.53-213.75C476,347.91,512,304.07,567.2,282.46l1.46,3.73c-53.93,21.09-89,63.93-101.52,123.89-12.54,60.25-1.38,133.34,32.28,211.36S587,776.9,655,845,800.4,966.85,878.56,1000.58s151.11,44.82,211.36,32.28c60-12.48,102.8-47.59,123.89-101.52l3.73,1.46c-21.61,55.25-65.45,91.2-126.81,104A253.07,253.07,0,0,1,1039.2,1041.86Z"/><path d="M1049.39,1020.52c-46.78,0-98.9-11.65-153.71-34.62-78.95-33.09-157-86.94-225.84-155.74S547.19,683.27,514.1,604.32C481,525.2,471.36,451.7,486.38,391.76c7.38-29.46,20.57-54.7,39.18-75,19.05-20.77,43.44-36,72.49-45.21l1.21,3.81c-56.57,18-94.26,58.55-109,117.37-14.81,59.1-5.29,131.73,27.53,210,32.89,78.48,86.45,156.13,154.88,224.56s146.08,122,224.56,154.88c78.31,32.82,150.94,42.34,210,27.53,58.82-14.74,99.4-52.43,117.37-109l3.81,1.21c-9.22,29-24.44,53.44-45.21,72.49-20.3,18.61-45.54,31.8-75,39.18A242.09,242.09,0,0,1,1049.39,1020.52Z"/><path d="M1058.82,998.48c-44.07,0-93-10.61-144.76-31.6C835,934.78,756.7,881.33,687.69,812.31S565.22,665,533.12,585.94c-32.17-79.25-40-152.1-22.54-210.65,8.56-28.73,23-53,42.92-72C573.9,283.72,599.62,270,630,262.56l1,3.89c-29.65,7.3-54.77,20.65-74.65,39.69-19.42,18.59-33.5,42.24-41.85,70.29s-10.8,60.07-7.21,94.89c3.69,35.73,13.65,73.79,29.62,113.12,31.9,78.58,85,156.4,153.69,225S837,931.27,915.56,963.17c39.33,16,77.39,25.93,113.12,29.62,34.82,3.6,66.75,1.17,94.89-7.21s51.7-22.43,70.29-41.85c19-19.88,32.39-45,39.69-74.65l3.89,1c-7.47,30.34-21.16,56.06-40.69,76.46-19.07,19.92-43.31,34.36-72,42.92C1104.36,995.47,1082.28,998.48,1058.82,998.48Z"/><path d="M1067.74,975.68q-10.85,0-22.14-.87c-35.7-2.76-73.89-12-113.52-27.56-79-31-157.29-83.85-226.38-153s-122-147.37-153-226.38C537.22,528.29,528,490.1,525.19,454.4c-2.7-34.92.87-66.71,10.62-94.48s25.5-50.94,46.74-68.63c21.76-18.11,48.8-30.12,80.38-35.68l.69,3.94c-30.88,5.44-57.3,17.15-78.51,34.81-20.67,17.22-36,39.72-45.53,66.89s-13.06,58.48-10.4,92.84c2.73,35.3,11.91,73.11,27.3,112.37,30.76,78.5,83.34,156.31,152,225s146.52,121.28,225,152c39.26,15.39,77.07,24.57,112.37,27.3,34.36,2.66,65.6-.84,92.84-10.4s49.67-24.85,66.89-45.53c17.66-21.21,29.37-47.63,34.81-78.51l3.94.69c-5.56,31.58-17.56,58.62-35.68,80.38-17.69,21.24-40.78,37-68.63,46.74C1118.29,971.84,1094,975.68,1067.74,975.68Z"/><path d="M1075.51,952.37q-6.55,0-13.28-.33c-35.17-1.71-73-10.12-112.5-25-77.63-29.24-157.86-82.82-225.91-150.87S602.19,627.9,573,550.27c-14.87-39.48-23.28-77.33-25-112.5-1.67-34.36,3.07-65.34,14.09-92.08s28.11-48.6,50.69-64.73c23.12-16.53,51.46-26.67,84.23-30.15l.42,4c-32.07,3.4-59.77,13.3-82.33,29.42-21.95,15.69-38.54,36.88-49.31,63s-15.44,56.6-13.8,90.37c1.69,34.75,10,72.19,24.74,111.28,29,77.11,82.3,156.84,150,224.49S874,894.26,951.14,923.31c39.09,14.72,76.53,23.05,111.28,24.74,33.77,1.64,64.18-3,90.37-13.8s47.31-27.36,63-49.31c16.12-22.56,26-50.26,29.42-82.33l4,.42c-3.48,32.77-13.62,61.11-30.15,84.23-16.13,22.58-37.9,39.63-64.73,50.69C1131.06,947.53,1104.6,952.37,1075.51,952.37Z"/><path d="M1082.42,928.43c-35.45,0-74.56-7.37-115.43-22.08C889.78,878.55,809.88,825.87,742,758S621.45,610.22,593.65,533c-27.87-77.45-29.41-148.61-4.32-200.39,25.19-52,75.91-81.92,142.8-84.3l.15,4c-33.21,1.19-62.19,9.08-86.13,23.47a136.59,136.59,0,0,0-53.22,58.59c-24.62,50.79-23,120.86,4.49,197.28,27.59,76.67,80,156.05,147.42,223.51S891.68,875,968.35,902.58c76.42,27.51,146.49,29.11,197.28,4.49a136.59,136.59,0,0,0,58.59-53.22c14.39-23.94,22.28-52.92,23.47-86.13l4,.15c-2.38,66.89-32.32,117.61-84.3,142.8C1142.93,922.52,1114.14,928.43,1082.42,928.43Z"/><path d="M1088.41,904.15c-32.15,0-67.47-6.31-104.54-19-76.62-26.15-156-77.79-223.66-145.39S641,592.75,614.82,516.13c-26.25-76.89-25.23-146.27,2.87-195.36,28.19-49.26,81.77-75,150.84-72.43l-.15,4c-67.53-2.5-119.8,22.51-147.22,70.42-27.52,48.08-28.43,116.29-2.56,192.08,26,76,77.26,154.93,144.44,222.12S909.11,855.44,985.16,881.4c75.78,25.87,144,25,192.08-2.56,47.91-27.41,72.92-79.7,70.42-147.22l4-.15c2.55,69.08-23.17,122.65-72.43,150.85C1153.81,896.86,1122.93,904.15,1088.41,904.15Z"/><path d="M1093.59,879.48c-28.71,0-60.11-5.27-93.2-15.86-75.89-24.3-154.73-74.74-222-142s-117.71-146.12-142-222C612,423.42,615.83,356.14,647.22,310.18s88-67.05,159.14-59l-.45,4c-69.61-7.87-124.8,12.48-155.39,57.28s-34.34,111-10.33,186c24.11,75.29,74.2,153.56,141,220.39s145.1,116.92,220.39,141c75,24,141,20.34,186-10.33s65.15-85.78,57.28-155.39l4-.45c8,71.16-12.92,127.68-59,159.14C1163.82,870.54,1131,879.48,1093.59,879.48Z"/><path d="M1098,854.47c-25.11,0-52.44-4.23-81.33-12.77-75-22.18-153.23-71.26-220.15-138.19S680.48,558.4,658.3,483.36C636,408,643.06,343.17,678.13,300.86S772.86,243,846,257.26l-.77,3.92c-71.61-13.94-129.85,1.06-164,42.24s-41,104.74-19.08,178.81c22,74.41,70.72,152,137.18,218.46s144.05,115.18,218.46,137.18c74.07,21.89,137.57,15.12,178.81-19.08s56.18-92.38,42.24-164l3.92-.77c14.24,73.12-1.24,132.72-43.61,167.84C1173.05,843.5,1138.38,854.47,1098,854.47Z"/><path d="M1100.85,829.09c-37.65,0-79.76-10-123.69-29.38C920.21,774.52,864,735.05,814.45,685.55s-89-105.77-114.16-162.71-34.48-111.1-26.69-156.22c7.84-45.41,32.34-78.8,70.85-96.56,38.33-17.67,88-18.61,143.56-2.72l-1.09,3.85c-54.66-15.63-103.34-14.76-140.79,2.5-37.27,17.19-61,49.56-68.59,93.61C669.89,411.64,679,464.87,704,521.23s64.18,112.33,113.33,161.49,105,88.34,161.49,113.33,109.58,34.06,153.93,26.41c44-7.6,76.42-31.32,93.61-68.59,17.26-37.45,18.13-86.13,2.5-140.79l3.85-1.09c15.89,55.58,14.95,105.23-2.72,143.56-17.76,38.51-51.15,63-96.56,70.85A191.6,191.6,0,0,1,1100.85,829.09Z"/><path d="M1103.14,803.59c-33.15,0-70-8.2-108.87-24.36-56.63-23.57-112.66-62.12-162-111.48s-87.91-105.38-111.48-162c-23.64-56.8-30.24-109.47-19.07-152.31,11.24-43.12,39.46-72.63,81.59-85.33,41.86-12.62,93.93-7.51,150.58,14.79l-1.46,3.73c-55.81-22-107-27.05-148-14.69-40.72,12.27-68,40.81-78.87,82.51-10.94,42-4.41,93.77,18.89,149.76,23.37,56.16,61.62,111.74,110.62,160.73s104.57,87.25,160.73,110.62c56,23.3,107.77,29.83,149.76,18.89,41.7-10.87,70.24-38.15,82.51-78.87,12.36-41,7.28-92.16-14.68-148l3.72-1.46c22.3,56.65,27.41,108.72,14.79,150.58-12.7,42.13-42.21,70.35-85.33,81.59A172.18,172.18,0,0,1,1103.14,803.59Z"/><path d="M1104.89,777.79c-28.33,0-59.74-6.26-92.36-18.66-55.94-21.27-113.72-60-162.71-109s-87.68-106.77-109-162.71c-21.35-56.14-24.49-108.73-8.86-148.08,15.74-39.6,49.89-64.52,96.15-70.18,45.91-5.61,102.36,8,158.93,38.3L985.2,311c-55.85-29.93-111.45-43.37-156.55-37.86-22.15,2.71-41.34,9.8-57.06,21.08-16.09,11.54-28.15,27.22-35.86,46.61-15.27,38.42-12.11,90,8.88,145.18,21.07,55.42,59.44,112.7,108,161.3s105.88,87,161.3,108c55.2,21,106.76,24.15,145.18,8.88,19.39-7.71,35.07-19.77,46.61-35.86,11.28-15.72,18.37-34.91,21.08-57.06,5.51-45.1-7.93-100.7-37.86-156.55l3.53-1.89c30.31,56.57,43.91,113,38.3,158.93-5.66,46.26-30.58,80.41-70.18,96.15C1144.12,774.54,1125.31,777.79,1104.89,777.79Z"/><path d="M1105.36,752.16c-21,0-43.93-3.73-68.1-11.25-58.1-18.06-118.52-56.42-170.13-108s-90-112-108-170.13c-18.16-58.41-14.23-109.5,11.06-143.85s69.86-49,125.3-40.95c55,8,116.17,37.56,172.16,83.3l-2.53,3.1c-55.43-45.29-115.88-74.57-170.2-82.44-53.91-7.82-97.07,6.16-121.51,39.36s-28.23,83.12-10.46,140.3c17.87,57.49,55.88,117.33,107,168.49s111,89.17,168.49,107c57.18,17.77,107,14.06,140.3-10.46s47.18-67.6,39.36-121.51c-7.87-54.32-37.15-114.77-82.44-170.2l3.1-2.53c45.74,56,75.32,117.12,83.3,172.16,8,55.44-6.5,99.94-41,125.3C1161,744.67,1135.1,752.16,1105.36,752.16Z"/><path d="M1105.17,726.48c-16.76,0-34.9-2.58-54.11-7.78-56.73-15.38-116-51.89-166.94-102.82S796.68,505.67,781.3,448.94c-15.47-57.12-7.7-104.87,21.9-134.47s77.36-37.38,134.48-21.9c56.73,15.37,116,51.88,166.94,102.81s87.44,110.21,102.81,166.94c15.48,57.12,7.7,104.88-21.9,134.48C1165.89,716.44,1138.24,726.48,1105.17,726.48ZM883.58,288.79c-32,0-58.67,9.63-77.55,28.5-28.54,28.55-35.95,74.93-20.87,130.6C800.36,504,836.5,562.61,886.94,613.06S996,699.64,1052.1,714.84c55.68,15.08,102.06,7.67,130.61-20.87s36-74.93,20.86-130.6c-15.19-56.07-51.33-114.72-101.78-165.16S992.7,311.62,936.63,296.43C917.77,291.32,900,288.79,883.58,288.79Z"/><path d="M1103.73,700.8c-15.39,0-32.06-2.37-49.7-7.15-52.09-14.11-106.53-47.64-153.28-94.4S820.46,498.06,806.35,446c-14.22-52.48-7.07-96.36,20.14-123.57s71.1-34.36,123.57-20.14c52.09,14.11,106.53,47.63,153.29,94.39s80.28,101.2,94.39,153.29c14.23,52.47,7.07,96.36-20.14,123.57C1159.54,691.57,1134.13,700.8,1103.73,700.8ZM900.37,299.11c-29.32,0-53.76,8.83-71,26.12-26.15,26.15-32.94,68.66-19.11,119.69,13.94,51.43,47.09,105.23,93.36,151.51s100.08,79.43,151.51,93.36c51,13.83,93.54,7,119.69-19.11S1207.71,602,1193.88,551c-13.93-51.42-47.09-105.23-93.36-151.5S1000.44,320.05,949,306.12C931.72,301.43,915.4,299.11,900.37,299.11Z"/><path d="M1101.36,675.25a173.72,173.72,0,0,1-45.17-6.49C1008.88,655.94,959.44,625.49,917,583s-72.91-91.91-85.73-139.22c-12.93-47.71-6.42-87.6,18.33-112.35s64.65-31.26,112.35-18.33c47.31,12.82,96.75,43.27,139.22,85.73s72.91,91.91,85.73,139.22c12.93,47.7,6.42,87.6-18.33,112.35C1152.11,666.86,1129,675.25,1101.36,675.25ZM916.77,310.64c-26.58,0-48.71,8-64.37,23.65C828.71,358,822.56,396.5,835.1,442.76c12.64,46.65,42.72,95.46,84.7,137.44s90.79,72.06,137.44,84.7c46.26,12.54,84.78,6.39,108.47-17.3s29.84-62.21,17.3-108.47c-12.64-46.65-42.72-95.46-84.7-137.44s-90.79-72.06-137.44-84.7A169.51,169.51,0,0,0,916.77,310.64Z"/><path d="M1098.05,649.91a155.47,155.47,0,0,1-40.51-5.82c-42.41-11.49-86.73-38.78-124.79-76.84s-65.35-82.38-76.84-124.79c-11.6-42.8-5.75-78.61,16.47-100.83s58-28.08,100.83-16.48c42.41,11.5,86.73,38.79,124.79,76.85s65.35,82.38,76.85,124.79c11.6,42.8,5.74,78.61-16.48,100.83C1143.62,642.38,1122.86,649.91,1098.05,649.91ZM932.72,323.33c-23.75,0-43.52,7.14-57.51,21.12-21.16,21.17-26.65,55.6-15.44,97,11.31,41.75,38.24,85.43,75.81,123s81.26,64.5,123,75.81c41.36,11.21,75.79,5.72,97-15.44s26.64-55.6,15.44-97c-11.32-41.74-38.24-85.43-75.81-123s-81.27-64.49-123-75.81A151.75,151.75,0,0,0,932.72,323.33Z"/><path d="M1093.82,624.84a137.58,137.58,0,0,1-35.74-5.13c-37.4-10.14-76.48-34.2-110-67.75s-57.61-72.64-67.75-110c-10.24-37.79-5.06-69.41,14.58-89.05s51.26-24.81,89-14.57c37.4,10.13,76.47,34.2,110,67.75s57.62,72.63,67.75,110c10.24,37.79,5.06,69.42-14.57,89C1134.08,618.18,1115.74,624.84,1093.82,624.84ZM948.18,337.16c-20.85,0-38.21,6.27-50.49,18.54-18.58,18.58-23.38,48.83-13.54,85.18,10,36.73,33.65,75.18,66.72,108.25s71.52,56.76,108.25,66.72c36.35,9.85,66.6,5,85.18-13.54s23.39-48.83,13.54-85.18c-10-36.74-33.65-75.18-66.72-108.25s-71.51-56.76-108.25-66.72A133.49,133.49,0,0,0,948.18,337.16Z"/><path d="M1088.68,600.11a118.69,118.69,0,0,1-30.89-4.44c-32.29-8.75-66-29.51-95-58.48s-49.73-62.69-58.48-95c-8.86-32.68-4.37-60,12.63-77s44.36-21.49,77-12.64c32.29,8.75,66,29.52,95,58.48s49.73,62.7,58.48,95c8.85,32.68,4.36,60-12.64,77C1123.53,594.34,1107.65,600.11,1088.68,600.11Zm-125.56-248c-17.9,0-32.8,5.37-43.33,15.9-15.95,15.94-20.07,41.93-11.6,73.16,8.57,31.63,29,64.73,57.45,93.2s61.57,48.88,93.2,57.45c31.23,8.47,57.22,4.35,73.16-11.6s20.07-41.93,11.61-73.17c-8.57-31.62-29-64.72-57.45-93.2S1024.58,365,993,356.39A115,115,0,0,0,963.12,352.1Z"/><path d="M1082.64,575.78a99.45,99.45,0,0,1-26-3.73c-27.09-7.34-55.39-24.76-79.69-49s-41.71-52.6-49-79.69c-7.45-27.48-3.66-50.5,10.66-64.83s37.35-18.11,64.83-10.66c27.09,7.34,55.39,24.76,79.69,49.05s41.71,52.6,49,79.69c7.45,27.48,3.66,50.51-10.66,64.83C1112,570.92,1098.62,575.78,1082.64,575.78ZM977.5,368.09c-14.91,0-27.31,4.47-36.06,13.22-13.27,13.27-16.69,34.91-9.63,61,7.16,26.42,24.21,54.09,48,77.9s51.48,40.86,77.9,48c26,7.06,47.69,3.64,61-9.63s16.69-34.91,9.63-60.95c-7.16-26.43-24.21-54.1-48-77.91s-51.48-40.86-77.91-48A95.68,95.68,0,0,0,977.5,368.09Z"/><path d="M1075.72,551.92a80.6,80.6,0,0,1-21-3c-21.83-5.91-44.62-19.94-64.18-39.5s-33.59-42.36-39.5-64.18c-6-22.22-2.94-40.85,8.67-52.45s30.23-14.69,52.45-8.67c21.83,5.91,44.62,19.94,64.18,39.5s33.59,42.35,39.5,64.18c6,22.22,2.94,40.84-8.67,52.45C1099.5,548,1088.66,551.92,1075.72,551.92ZM991.27,385.1c-11.87,0-21.73,3.55-28.69,10.5C952,406.16,949.32,423.41,955,444.18c5.73,21.16,19.4,43.32,38.47,62.4s41.23,32.74,62.4,38.47c20.77,5.63,38,2.92,48.58-7.63s13.26-27.81,7.63-48.58c-5.73-21.17-19.4-43.33-38.47-62.4s-41.23-32.74-62.4-38.47A76.4,76.4,0,0,0,991.27,385.1Z"/><path d="M1067.94,528.59a61.3,61.3,0,0,1-15.9-2.28c-16.5-4.47-33.72-15.07-48.5-29.85s-25.38-32-29.85-48.5c-4.58-16.9-2.21-31.08,6.65-39.95s23-11.22,39.94-6.65c16.51,4.48,33.73,15.08,48.51,29.85s25.38,32,29.85,48.51c4.57,16.89,2.21,31.07-6.65,39.94C1086.08,525.57,1077.8,528.59,1067.94,528.59ZM1004.4,403.08c-8.79,0-16.09,2.62-21.23,7.76-7.81,7.81-9.8,20.62-5.62,36.07,4.29,15.84,14.53,32.43,28.82,46.72s30.88,24.53,46.72,28.82c15.45,4.18,28.26,2.19,36.07-5.62s9.8-20.62,5.62-36.07c-4.3-15.84-14.53-32.43-28.82-46.72s-30.88-24.52-46.72-28.82A57.16,57.16,0,0,0,1004.4,403.08Z"/><path d="M1059.31,505.85a41.14,41.14,0,0,1-10.79-1.55c-11.14-3-22.76-10.16-32.71-20.11s-17.1-21.57-20.11-32.71c-3.13-11.52-1.49-21.23,4.61-27.33s15.81-7.73,27.33-4.61c11.14,3,22.75,10.16,32.71,20.11s17.09,21.57,20.11,32.71c3.12,11.52,1.48,21.23-4.61,27.33C1071.77,503.77,1066.08,505.85,1059.31,505.85ZM1016.86,422c-5.7,0-10.42,1.69-13.72,5-5,5-6.31,13.38-3.58,23.46,2.84,10.47,9.61,21.45,19.08,30.92s20.45,16.24,30.92,19.08c10.09,2.73,18.42,1.46,23.46-3.58s6.31-13.37,3.58-23.46c-2.84-10.47-9.61-21.45-19.08-30.92s-20.45-16.24-30.92-19.08A37.61,37.61,0,0,0,1016.86,422Z"/><path d="M1049.86,483.76a21.42,21.42,0,0,1-5.67-.81c-5.74-1.55-11.71-5.22-16.82-10.32s-8.77-11.08-10.32-16.82c-1.66-6.13-.75-11.34,2.57-14.65s8.52-4.23,14.65-2.57c5.74,1.55,11.71,5.22,16.82,10.32s8.77,11.08,10.32,16.82c1.66,6.13.75,11.34-2.57,14.65A12.27,12.27,0,0,1,1049.86,483.76Zm-21.25-42a8.46,8.46,0,0,0-6.17,2.2c-2.26,2.27-2.8,6.09-1.53,10.78,1.37,5.08,4.67,10.42,9.29,15s10,7.92,15,9.29c4.69,1.27,8.52.73,10.78-1.53s2.8-6.09,1.53-10.78c-1.37-5.08-4.67-10.42-9.29-15s-10-7.92-15-9.29A17.64,17.64,0,0,0,1028.61,441.78Z"/></g><path d="M750,1252a500.49,500.49,0,1,1,188.9-36.76A500.34,500.34,0,0,1,750,1252Zm0-1000a496.49,496.49,0,1,0,187.4,36.47A496.29,496.29,0,0,0,750,252Z"/></g></g></svg>