<svg id="Geometric_shape" data-name="Geometric shape" xmlns="http://www.w3.org/2000/svg" viewBox="0 0 1500 1500"><path id="Shape_70" fill="#09BAD5" data-name="Shape 70" d="M1254.25,1064.55c-.72-21.65-.45-19.29-1.34-48.58-2.74-89.11-8.06-179.28-8.06-266,0-96.57,6.54-196.49,8.81-293.86.34-14,.63-20.61,1.48-51.2l-.15.22c.23-26-1.1-36.3-2.66-52.77l-.19.23a165.54,165.54,0,0,0-10-38.81l-1.32-3.6-.13.14q-2.19-5-4.82-9.64l0,0c-5.09-8.33-8.89-14.37-17.13-22.25h0l-.06-.05,0,0-3.12-3-.09.07a96.69,96.69,0,0,0-13-9.51l.36-.22-5.63-2.8c-36.53-19.48-85.16-18.32-125.7-17.34-143.28,3.43-188.44,7.25-274,8.89-136.05,2.65-239.33-7.17-405.86-9.87l.44.26c-34.66.52-70.2,4.89-97.31,22.52l-8.41,5.15.95.21c-44.07,35-43.27,99.4-41.93,155.55.79,32.7.32,40.15,4.66,147.26,6.27,154.69,6.32,193,0,350-4,99.24-3.68,105.52-5.16,169.09l.11-.17c-.22,26,.94,35.75,2.5,53.12l.22-.28c2.87,20.66,6.83,30.7,11.19,42.6l.16-.17q2.19,5,4.82,9.67l-.05,0c7.45,12.14,10.33,15.67,20.34,25.25l.09-.08a95.92,95.92,0,0,0,13,9.49l-.35.21,5.62,2.8c38.09,20.33,89.5,18.67,132.7,17.25,27.26-.89,28.6-.57,74.54-2.19.28.09,87.55-3.42,99.93-3.9,229.59-8.85,255.23,3,497.52,6.73l-.4-.23c33.77-.42,69-4.23,96.32-21.19l9.8-5.92-1-.22C1257.75,1191.47,1256.3,1122.74,1254.25,1064.55ZM257.89,518.44c5.38-43,10.41-107.79,46.56-131.87,46.07-30.69,119.11,14,164.83,40.66C581,492.32,672,578.89,746.26,655c75.26,77.13,142.06,154.2,236.81,203.54,33.21,17.29,69.54,25.18,104.85,11.79,77.72-29.47,118.51-148.37,149-227.54q-.39,11.22-.72,22.47c-25.48,71.25-45.34,155-91.3,214.17-38.84,50-95.61,46.07-151.44,15.66C906.33,847.62,841,779.1,771.73,706.56c-87.51-91.71-174.21-179.17-283.9-242.84-21.32-12.37-53.54-31.07-86.42-40-39-10.58-69.82-4.52-91.51,18-30.58,31.76-42,86.09-49.76,134.25C260,572.73,258.64,539.06,257.89,518.44Zm-2.16-77c0-14.8-2.19-49.41,1-79.72,6.45-17,16.68-27.82,31.29-33,46.37-16.59,123.56,28.82,165.71,53.4C579.59,455.34,684.3,550.87,785.71,656c57.37,59.47,116.69,121,193.87,157.27,35.66,16.77,69.37,19.33,100.2,7.61,79.63-30.29,125.34-149.26,159-227.22q-.37,9.54-.75,19.13c-33.79,82.77-73.51,217.82-153.66,248.22-29.18,11.06-60.8,7.36-96.68-11.32-80.66-42-141.1-104.88-205.08-171.44C688.19,580,594.48,488.59,474.31,418.59c-46.79-27.25-123.69-74.8-175.4-40.34-24.92,16.6-36.38,48.9-42.8,81.55Q255.89,450.62,255.73,441.46Zm9,333.73c0-1.26-.31,2.53,12.8-46,16-59.13,32.51-120.27,67.42-164.49,42.72-54.12,110-31,158.92-2.09,96.7,57.17,170.77,135.13,242.4,210.52C831,862.33,909,940.55,1006.25,994.6c51.74,28.76,125.81,60.28,171.37,2.23,34-43.37,47.2-107.86,58.62-161.8q.57,19.31,1.28,38.52c-10.19,57-15.36,135-53.4,176.73-40.25,44.17-109,10.39-161.12-19C913.41,969.41,825.61,881.07,740,791.57c-69.81-73-135.74-141.91-223.62-192.46-59.91-34.46-124.11-40.56-167.66,13.51-42.24,52.45-63,124-84.44,188.85C264.44,793,264.59,783.85,264.68,775.19Zm891.76,158.53c-38.64,51-99.55,38.11-155.12,6.78C904.8,886.09,832,809.48,754.9,728.37c-78.83-82.91-157.29-163.19-255.57-219.53C467,490.32,427.26,470.77,390,470.77c-27.07,0-49.27,10.33-66.17,30.84C289,543.77,275.49,607.9,263.54,664.48c-.26,1.21.14,4.14-1.41-37.8,9.88-55.1,16-137.57,55-178,44.77-46.49,123.44-.83,165.71,23.7,94.62,54.92,173.74,128.47,263.42,222,76.39,79.64,146,157,242.48,209.51,67.93,37,126.22,30.5,164.12-18.31,40.81-52.55,61.34-122.94,82.58-187q-.27,13.32-.42,26.61C1214.14,794.38,1199.35,877.07,1156.44,933.72Zm-892-226.9C279.68,643.54,290.11,558.19,331.5,508c40.84-49.57,107.18-22.37,162.86,9.55C695.7,632.93,801.06,839.09,996.41,949.21c60.34,34,126,46,168-9.45,37.45-49.44,54-117.15,70.48-177.61q.09,15.5.36,31.05c-15.26,63.28-25.42,146.39-65.49,197.45-39.17,49.91-103.16,26.06-158.65-4.79-96-53.36-173.48-131-257.64-219.61C681.36,690.36,606.81,611.89,508.91,554c-60.41-35.71-128.4-50.56-171.86,4.5-38.8,49.15-55.51,117.68-72.27,179.35Q264.69,722.38,264.43,706.82Zm-1,128c25.77-72,45.66-157.06,93.08-215.94,20.59-25.57,68.1-61,154.88-11.11S663.47,726,732.76,798.48c86.69,90.63,174.58,179,285.32,241.48,27,15.24,73.41,41.44,115.78,41.44,21.21,0,41.42-6.58,57.65-24.39,29.65-32.53,40.27-83.89,48-132.36.76,18.66,1.6,39.73,2.25,57.57-5.35,43.34-9.82,105.81-44.91,130.71-43.95,31.19-114.36-10.38-159.93-36.29C923.29,1012,829.84,923.29,753.42,845,679.85,769.63,614.05,695.25,521.8,644.2c-39.36-21.78-75.84-26.8-108.42-14.93C334.79,657.9,293.59,777.4,262.7,857.39Q263.09,846.13,263.42,834.83Zm-1.82,52.56c19.47-47.61,41.06-112.92,71.5-165.66C379.52,641.29,436.34,608.34,517,653c90.84,50.28,156.26,124.21,229.3,199,93.34,95.61,178.8,172.2,291.58,236.69,31.82,18.2,79.28,45.37,121.38,45.36,15.56,0,30.39-3.71,43.41-13,23.84-16.92,34.76-47.59,41-79.58.82,34.33,3,67.13-.63,98.23-5.69,16.19-15.16,26.59-28.93,31.77-19.07,7.18-46.42,4-81.27-9.39-29-11.16-55-25.91-79.89-40.1-97.66-55.59-192.83-131.11-299.5-237.67-70.11-70-137.21-147.27-228.17-195.06-22.54-11.85-44.4-17.78-65.35-17.78-102.21,0-158.54,142.19-199,235.18C260.84,906.59,261.51,889.56,261.6,887.39ZM466.32,256.44C567.37,318,659.06,384,746.61,458.33,819.37,520.09,891.05,604.24,986.08,632c55.91,16.35,105.59-8,148.37-48.15,43.4-40.74,78-95.34,109.65-144.06-.15,4.71-.27,8.7-.37,13.43-53.1,87.54-137.68,256.66-259.13,214.64-91.26-31.59-160.21-114.1-231.43-177.69C656.65,404,550.77,327.09,430,255.43,447,256,450.52,256,466.32,256.44Zm111.08,4C633,296.56,690,336.69,746.82,379.71c76.78,58.11,154.91,144.74,255,161.68,101.77,17.22,179.63-82.56,242.65-162.93.2,3.87.35,7.9.43,12.12C1186.19,471.65,1105,601,995.12,577,900.78,556.36,827.06,470.72,753,411.22A2462.24,2462.24,0,0,0,541.64,259Zm56.18,2.16c37.1,24.52,75.23,50.69,113.36,77.82,78.43,55.79,163.31,144,265.81,155.65,93.55,10.64,167.75-72.84,229.2-143.77q.85,5.64,1.43,11.39c-58.62,74.11-137.92,185.11-239.89,167.86-96.86-16.39-174.27-102-250.63-159.8-52.28-39.56-104.69-76.68-156-110.53Q615.12,261.92,633.58,262.58Zm57.69,1.71c19.8,13,37.72,24.73,55.8,36.79,81.11,54.14,173.16,143.21,278.65,149.62,86.25,5.22,155.29-64.07,211-121.85,1,3.48,2,7.12,2.81,10.89C1179.49,409,1106,496.6,1013.88,486.12c-99.43-11.32-181.81-97.43-261.14-153.87-33.6-23.9-67.2-47.07-100.1-69C665.24,263.63,678.51,264,691.27,264.29Zm61,.69c83.92,53.63,181.87,138.15,288.42,140.35,72.21,1.47,133.74-48.69,187.6-97.65a106.18,106.18,0,0,1,4.86,10.54c-55,57-123.24,127.59-206.81,122.49-102.59-6.23-190.42-92.36-273.7-147.94-14-9.33-27.85-18.47-42.57-28.12C724.73,264.88,737.33,265,752.25,265Zm64.51-.91c74.94,46,150.93,95.89,239.1,95.89,59.72,0,111.69-34.81,159-71.29a80.91,80.91,0,0,1,8.19,10.27c-54.86,50-114.11,97.84-182.15,96.39-98.24-2-189.38-76.87-270.42-130.44C782.62,264.78,800.49,264.48,816.76,264.07Zm71.74-2.37c59.51,30.93,120.93,57.62,188.27,52.86,43.63-3.08,81.48-22.18,115.9-42.69a88.86,88.86,0,0,1,14.78,9.86c-45,34.61-95.19,68.23-151.58,68.23-80.43,0-151.82-43.84-220.86-86.39Q861.85,262.76,888.5,261.7ZM987,257.84c35,10.8,72.25,14.61,110.72,11.34,14.9-1.27,31-4.93,49.09-11.19a154.58,154.58,0,0,1,34.79,8.79c-31.74,18.51-66.44,35-105.55,37.81-60.83,4.29-117.55-18.8-167.18-43.69C932.82,259.94,960,258.8,987,257.84ZM746.71,419C821.1,478.76,895.55,565.45,993,586.72c53.84,11.76,100.84-10.26,142.54-46.72,42.43-37.08,77.76-88,109.44-132.35-.06,4.37-.15,8.71-.26,13-55.54,83.75-141.45,235.19-255.81,201.78-92.33-27-163.38-110.24-235.81-171.72A2185.71,2185.71,0,0,0,486.34,257q17.76.56,35.48,1.22A2443.56,2443.56,0,0,1,746.71,419Zm-.2,78.62c71.62,63.94,141.1,147.24,234.82,179.68,27.14,9.39,55.08,9.77,82.95-.32,78.93-28.6,136.81-132.13,178.93-203.4q-.2,7-.42,14c-51.59,93-132.29,276.56-260.45,225.72-90.94-36.07-158.15-117.86-229.1-183.68-112.9-104.72-243-201.8-381.88-273.87,12.63-.92,25.31-1.05,38-.86C536.07,328.83,646.37,408.24,746.51,497.64ZM353.33,257.75C497.21,330.93,629,428.06,746.44,537c71.27,66.11,139,148.67,232.22,185.64,60.17,23.87,111.9.57,156.17-46s77.71-111.74,107.22-166.77q-.27,7.59-.55,15.15c-27.39,54.21-62.54,140.14-112,194.29-45.4,49.7-93.62,62.6-147.43,39.41C890,719.08,824,637.36,753.32,569.11,649.3,468.67,547.21,389.9,441.24,328.33c-42.24-24.55-83.89-47.55-127.76-59.65C324.76,263.61,337.92,260,353.33,257.75Zm705.06-1.86c18.6-.32,39.87-1.26,61.16-.35a159.27,159.27,0,0,1-22.67,3.67,288.22,288.22,0,0,1-71.33-2.59Q1042,256.17,1058.39,255.89ZM300.44,275.7C347,286.48,391.22,310.83,436.21,337c105.27,61.17,206.73,139.46,310.16,239.34,71,68.54,137.52,151,231.73,191.63,18.45,7.95,36.55,11.93,54.13,11.93,103.3,0,163.29-136.88,208.31-230.21q-.33,8.42-.67,16.77c-35,76.62-81,213.65-163.65,245.08-28.59,10.88-58.81,8.48-92.39-7.31C908.32,768.68,849.65,707.86,792.9,649c-101.56-105.28-207-201.62-334.12-275.58-46.22-27-123.29-72.36-174.11-54.18a57.12,57.12,0,0,0-23.31,15.51C267.56,310,279,289.52,300.44,275.7ZM258.12,975.15C286,920.2,321.53,835.06,371.74,780.74c46.87-50.72,96.11-62.94,150.52-37.37C610.73,785,676.87,863.75,746.37,930.89c107.15,103.51,211.68,183.71,319.56,245.19,34.21,19.5,76,43.33,119.7,55.46-11.92,5.42-26.84,8.8-39.8,10.61-16.57-8.21-34.55-17.83-54.9-29.38C971.88,1145.2,858.27,1061.17,753.26,963,683.36,897.72,616.18,818,525.84,779.38c-28.14-12-57.71-15-87.53-5.28C355.6,801,298.41,914.54,257.58,990.38,257.74,985.67,257.93,980.51,258.12,975.15ZM521.91,788.58c88.3,37.72,155.14,116.92,224.52,181.76C852,1069,966.26,1153.51,1086,1221.47c14.94,8.48,28.62,15.93,41.42,22.55-12.67.85-25.47.92-37.83.75-125.1-72.72-235.16-152-336.41-242.41-70.51-63-138-144.76-230.11-178-28.65-10.32-57.15-10.89-84.7-1.71-80.89,27-138.88,131.41-181.92,204q.19-7,.41-14.08C309.47,918,391.59,732.92,521.91,788.58Zm511.05,455a2179.72,2179.72,0,0,1-279.88-201.89c-71.82-60.93-141.24-143.25-234.76-172.2a129,129,0,0,0-81.55,1.1C358.93,897.24,300.31,991.7,255.7,1060.22c0-.65.11-6.48.27-13.31,29.89-49.15,69-122.88,118.8-171.24,47.52-46.17,94.91-59.85,144.9-41.85,89.73,32.31,156.62,113.3,226.84,176,97.57,87.1,203.24,163.94,322.55,234.52C1061.46,1244.14,1053.19,1244.07,1033,1243.56ZM922,1239.63c-55.52-36.16-110.86-75.21-169.16-119.34C676.8,1062.72,600.78,979.67,502.8,959.61c-103.56-21.2-183,79.87-247.32,161.82-.19-3.9-.32-8-.4-12.22,61.55-84.87,143.85-213.07,254-185,92.48,23.57,164.3,105.69,237.62,164.56a2483.67,2483.67,0,0,0,211,152.28C945.2,1240.57,930.6,1240,922,1239.63ZM866,1237.46c-36.46-24.15-73.51-49.63-113.22-77.86-79-56.16-160.18-139.9-260.74-154.9-97.48-14.54-175.81,75.83-233,141.81l-1.08,1.24c-.56-3.8-1-7.64-1.39-11.5,59-74.49,140.25-188.13,244.26-166.84,95,19.45,170.35,101.57,246,158.86,53.61,40.57,104.73,76.86,155.79,110.58Q884.39,1238.13,866,1237.46ZM747.43,1235c-84.54-54.06-178.31-136.11-283-140.11-75.13-2.86-137.17,47-192.85,97.57a106.63,106.63,0,0,1-4.85-10.57c54.09-56,127.65-131.06,211.52-122.16,77.06,8.16,146,58.65,212.61,107.47,41.59,30.47,45.81,33.31,98.8,68.15C772.12,1235.08,759.28,1235,747.43,1235Zm-64.65.89C609.92,1191.22,534.43,1140,447.64,1140c-63.44.07-117.12,36.4-162.64,71.43a78.94,78.94,0,0,1-8.21-10.25c53.9-49.09,114.64-99.09,187.21-96.31,96.56,3.68,183.4,76,265.24,130.2Q706.07,1235.32,682.78,1235.91Zm-72.12,2.35c-54.42-28-114-53.64-181.61-53.08-43.69.35-84.36,20.72-121.88,43a89.12,89.12,0,0,1-14.78-9.83c43.94-33.71,95.51-68.3,155.26-68.36,79.38,0,149.49,44.67,216.89,86.37Q637.51,1237.21,610.66,1238.26Zm-99.6,3.9c-32.58-9.38-68.6-14.56-102.92-11.83a226.15,226.15,0,0,0-55.47,11.81,155.09,155.09,0,0,1-34.44-8.82c34.63-20.19,71.82-37.82,110.9-38.14,56.35-.43,106,16.87,160.91,43.89C566.5,1240,535.92,1241.28,511.06,1242.16Zm-250.82-81.82c61-70.2,136.75-159.7,230.29-145.75,97.4,14.52,177.89,97.33,256.41,153.16,34.9,24.82,67.76,47.51,100,69-13.81-.45-26.55-.81-38.55-1.08-66.55-43.68-69.74-45.87-111.64-76.57C629,1109.55,559,1058.25,479.25,1049.8c-86.81-9.2-161,64.48-216.21,121.49C262,1167.79,261.06,1164.13,260.24,1160.34ZM753,1081c-73.66-59.14-146.11-142.16-241.41-166.45-109.93-28-191.32,86.43-256.51,177.61,0-4.41.13-8.77.22-13.05,30.56-46,70.11-112.67,118.88-157.43,47.35-43.45,93.54-57.4,141.22-42.64,90.9,28.15,159.75,109.63,231.24,170.28A2187.47,2187.47,0,0,0,1013,1243q-17.75-.54-35.44-1.19A2460.35,2460.35,0,0,1,753,1081ZM380,1244.74c30.18-6.73,59.77-6.55,91.45-1.32C415.89,1244.94,401.23,1245.72,380,1244.74Zm818.83-20.18c-46.15-10.58-91.43-36.37-127.92-57.16-107.15-61.07-211-140.78-317.56-243.71C683.46,856.2,616.84,776.78,526.51,734.32c-31.2-14.67-61.59-17.71-90.32-9-84.76,25.57-138.8,146.63-177.13,225.42q.35-8.49.68-16.93c35.61-77.71,84-217.19,167.53-246.68,29.08-10.26,59.59-6.65,93.29,11C610.27,745.27,673.82,819,746.31,891.43c107.32,107.2,203.17,183.23,301.62,239.28,39,22.21,96.39,54.54,143.24,54.54,18,0,34.34-4.87,46.66-17.67C1231.31,1191.57,1219.7,1211.28,1198.8,1224.56Z"/></svg>