<svg id="Geometric_shape" data-name="Geometric shape" xmlns="http://www.w3.org/2000/svg" viewBox="0 0 1500 1500"><path id="Shape_12" fill="#09BAD5" data-name="Shape 12" d="M252.89,1184h998.84L750,315l-16.74,29h0l-.06.1L248.27,1184h4.62ZM569.66,944.54l-38.75,32.92L566.21,947Zm-243.6,206.91,17.12-44.26,204.7-147ZM589.63,930.21,601.07,923l-135.7,112.77Zm-245,173.47,10.74-25.76L561.49,948ZM614,914.83l15.58-8.49-195,157.6ZM356.79,1074.66,368,1048.84l218.37-119ZM639.34,901.05l18.32-8.43L416,1081.49Zm-270,144.78L381,1019.91,612.36,913.46ZM665.53,889l20.35-7.66L403.3,1094ZM382.29,1017.12l11.95-26,244.91-92.16ZM692.51,878.87l21.92-6.43L393.76,1103.67ZM395.45,988.5l12.24-26.12,259-75.93ZM720.16,870.77l23.15-4.88-357,245.66ZM408.84,960l12.48-26.2,273.4-57.62Zm339.53-95.11,24.06-3.1L380.14,1118.19Zm-28.84,4h0L422.42,931.48l12.69-26.27,288.1-37.12ZM777,861.18l24.7-1.17L375.06,1123.9ZM436.16,903.06l12.9-26.32L752,862.37Zm369.57-43.23,25.09.85L370.7,1129ZM450.07,874.69l13.07-26.35L780.75,859Zm384.46-13.87,25.22,2.89L367,1133.44ZM464.12,846.38,477.35,820l332.1,38Zm399,17.74L888.3,869,363.68,1137.51Zm-384.85-46,13.37-26.37,346.19,67.45Zm413.13,51.55,24.87,6.85L360.78,1141.25ZM492.63,789.89l13.5-26.35L865.82,862.6Zm426.59,87.45,24.44,8.7L358.17,1144.7ZM507.06,761.72l13.62-26.33L893.17,868.06ZM946.36,887l23.88,10.45L355.83,1147.92ZM919.5,875.31h0L521.61,733.59l13.73-26.3L919.82,875.43Zm53.26,23.3,23.21,12L353.68,1151ZM536.27,705.52l13.83-26.27L945.65,884.54ZM998.33,911.91l22.48,13.52L351.65,1153.86ZM551,677.48,565,651.26l405.64,244Zm472,249.31,21.7,14.86-694.94,215Zm-457.1-277.3,14-26.17,414.73,284ZM283.43,1177.13l0,0,3.88-7.25Zm763.35-234,20.89,16.06L348,1159.27ZM580.87,621.55,595,595.43l422.77,325.33ZM280.68,1178l-.11,0,11.35-21Zm788.93-217.26,20.06,17.15-743.45,184ZM595.93,593.65l14.17-26.06,429.79,367.69Zm-318,585.08-.17,0,19.4-35.68Zm813.6-199.26,19.22,18.13L344.51,1164.31ZM611.08,565.79l14.25-26,435.77,411Zm-336,613.62-.22,0,27.41-50Zm837.36-180.14,18.4,19-788,148.44ZM626.32,538,640.64,512l440.73,455.12Zm-354,642-.28.06,35.79-64.86Zm860.21-160,17.59,19.78L341.23,1169.06ZM641.65,510.21,656,484.33l444.72,500ZM269.48,1180.52l-.34.06,44.25-79.64Zm882.18-139,16.81,20.48L339.58,1171.35ZM657.06,482.48l14.44-25.81,447.76,545.42ZM266.64,1181l-.39.06,52.76-94.3Zm903.3-117.1,16,21.1-848,88.61ZM672.55,454.8l14.5-25.75,449.89,591.43ZM263.79,1181.33l-.44,0,61.47-109.14Zm923.59-94.5,15.31,21.65-866.33,67.27ZM688.12,427.16l14.56-25.69,451.11,637.87Zm-427.2,754.45-.47,0L330.56,1058Zm943.1-71.23,14.6,22.15-883.86,45.35ZM703.77,399.55l14.61-25.61,451.53,684.73ZM258.06,1181.82l-.51,0,78.95-138.41Zm961.82-47.35,13.92,22.59L333.13,1180ZM719.49,372l14.66-25.55,451.12,731.88ZM255.18,1182l-.54,0,87.69-152.8Zm76.33.06L1235,1159l13.27,23ZM1200,1098.34,735.29,344.47,750,319Zm-851.61-83.67-96,167.34h-.58Z"/></svg>