<svg id="Geometric_shape" data-name="Geometric shape" xmlns="http://www.w3.org/2000/svg" viewBox="0 0 1500 1500"><path id="Shape_32" data-name="Shape 32" d="M1184.51,999.93v0l-5.35-89.28-15.9-88.32L1141.46,750l21.84-72.48,15.88-88.32,5.38-90L750,248.27,315,499.4l6.09,12.45,18.24,14.5,48,54.38L419.58,638,427,658.27l15.32,56.57v70.32L427,841.73,419.58,862l-32.23,57.28-48,54.38-18,14.3-.05,0-.2.16L315,1000.6l435,251.13,434.56-250.89Zm-46.28,24.19-40,23.09,8.87-78.33,33-26.22Zm-83,47.9,15.78-74.48,32.74-26-8.79,77.56Zm-42.85,24.74,22.57-70.57,32.38-25.72L1051.78,1074Zm-42.7,24.65,29.21-66.56,31.84-25.3L1008.56,1099Zm-42.46,24.52,35.62-62.43,31-24.65L965.33,1124Zm-42.09,24.29,41.65-58.06,29.74-23.63L922.1,1148.9Zm-41.39,23.9,47-53.31L918.23,1119l-39.36,54.88Zm-351.06-94.4L520.79,1074l46.44,19.48-33.92,29.69Zm-43.37-25,21.93-21.47,46.47,19.49L490,1098.15Zm-43.39-25,15.83-17.18,46.49,19.5-21.62,21.17Zm-43.44-25.09,9.83-12.83,46.5,19.51L403.3,1048.1ZM419.62,632l-16.25-28.88-4-8.72,20.7,23.45Zm-56.73-86.9,29.9,23.75-.39,13.11-25.17-28.52ZM576.8,351.73,617.1,375l-40.31,23.27L536.49,375Zm604.55,151-5.11,85.4L1130,607.49l11.12-81.56Zm-72,188.44L1129.41,611l46.3-19.42-15.2,84.52Zm24,74.36-34.06,80-56.94,5.21,36.26-75ZM960.51,1081.55l-29.09,23.12,26.52-43.38,28.32-34.45Zm-242.15,72.06-46.46-19.49,48.59-42.84,51.17,15.06Zm-273-373.78v-29.7l2.62-15.53,7.62,27.76Zm608.48-69.23,51-15-28.37,77.53-54.61,10.24ZM774.26,1104,723,1088.9l49.31-47.31L827,1051.85Zm276.18-166.14-1.26,10.28-23.48,26.6.29-1.16Zm3.68-5.38,3.38-5L1077.12,892l-.2,24.66-24.23,27.45Zm25.83-19.2.21-26.74,20.83-37.7,3.67,36.44Zm17.68-64.55-42.33,76.58H997.61l43.11-71.38ZM883.36,1136.07,832.07,1121l56.78-57.53,54.72,10.26Zm-163.65-48.14-51.2-15.06,45.58-42.21,54.63,10.25ZM539.3,997.87l54.45,10.22-37.67,31.7-51-15Zm-37.75,25.88-50.88-15L481,986.94l54.36,10.2Zm-34-228.93-8.74-31.88,18.65-22.07,17.27,30.67Zm8.34-56.74-18,21.35-8.68-31.63,9.72-19.94Zm575.62-29.94-50.79,14.94,29.47-70.48,45.94-19.27ZM887.77,1060.19,833,1049.92l51.17-57.16L941,998Zm-174.65-32.76-54.54-10.23,44-41,56.63,5.17ZM468.51,625.15l22-23.26L531,625.28l-28.76,26.65Zm563,23.67,22.9-72.81,39.85-23-16.91,76.59ZM478.05,833.05l37-25.38,17.39,30.9-45.63,26.49Zm480-34.67-40,63.73-56.47,5.17,42.2-58.72Zm-25.09,126.9H875.44L919.67,865l56.7-5.18Zm-320.7-62,51.67-9.69-48,36.18-53.8,4.92Zm58.31-10.94,52.6-9.87L676.3,884.21l-54.74,5ZM562.82,775l47.4-33.43,33.49,26.61-55.05,36.09Zm234.32,98.14-55.87,5.11,45.86-47.83,53.69-10.08ZM928.9,691.84l-44.44,18.64,39.8-59.35,38.43-22.19ZM784.69,786.63l47.08-50.79,44-18.47-42.24,54.89Zm-2.53-30,42.91-18-46,49.65-47.81,14.06ZM747,650l-40.3,23.27L666.4,650l40.3-23.27Zm89.6,48.27L796.3,675l40.3-23.27L876.9,675ZM750,651.73,790.3,675,750,698.27,709.7,675Zm43.3,25L833.6,700l-40.3,23.27L753,700Zm0-3.46L753,650l40.3-23.27L833.6,650Zm-43.3-25L709.7,625,750,601.73,790.3,625Zm87.52,52.93,36-20.77L830,733.34,787.78,751ZM706.7,676.73,747,700l-40.3,23.27L666.4,700Zm43.3,25L790.3,725,750,748.27,709.7,725Zm85.9,29.12,45-54.69,37.47-21.63-38.93,58.06Zm44-57.58L839.6,650l40.3-23.27L920.21,650Zm-43.3-25L796.3,625l40.3-23.27L876.9,625Zm-43.3-25L753,600l40.3-23.27L833.6,600Zm-43.3-25L709.7,575,750,551.73,790.3,575ZM747,600l-40.3,23.27L666.4,600l40.3-23.27ZM623.1,625l40.3-23.27L703.7,625l-40.3,23.27Zm40.3,26.73L703.7,675l-40.3,23.27L623.1,675Zm130.76,74.5L827.52,707l-47,47.12-40,16.78Zm-20.43,33.95-49.16,44.14-46.22,13.6,54.2-40.47ZM726,807l48.47-14.26-47.08,45.82-52,9.76Zm6.71,30.56L780.66,791,830,776.44l-44.37,51.23ZM660.4,650l-40.3,23.27L579.79,650l40.31-23.27Zm3.1,51.79,40.43,23.35-57.62,41.3-33.58-26.69Zm43.29,25,40.41,23.34-64.88,44.93-33.56-26.67Zm44,24.49,28-16.17L731,774.84,694.89,790ZM718.61,809.2l-49.37,40.3L618.45,859l52.95-35.94Zm204.6-160.93L882.9,625l40.31-23.27L963.51,625Zm-43.31-25L839.6,600l40.3-23.27L920.21,600Zm-43.3-25L796.3,575l40.3-23.27L876.9,575Zm-43.3-25L753,550l40.3-23.27L833.6,550Zm-43.3-25L709.7,525,750,501.73,790.3,525ZM747,550l-40.3,23.27L666.4,550l40.3-23.27ZM623.1,575l40.3-23.27L703.7,575l-40.3,23.27Zm37.3,25-40.3,23.27L579.79,600l40.31-23.27Zm-43,75.19-43.15,34-33.63-26.73L577,651.83Zm2.8,1.62,40.45,23.35L610.3,737.82l-33.6-26.7ZM683,798.26l38.16-16-51,38.09-43.61,12.83Zm45.87,43.11,53.24-10-45.34,47.3-55.4,5.06Zm114.94-24.61-53.44,10,45-51.9,49.89-14.68ZM888,756.23l-49.59,14.59L881.38,715l44.76-18.78ZM590.66,806.57l55.52-36.4,33.48,26.6-63.18,39.05Zm-28.47,63,54.59-30.42L662,825.86l-50.9,34.55Zm295.37-1.94-56.21,5.14,44.08-53.28,54-10.14Zm34.85-112.7L931,694.22l45.28-19-33.74,65Zm40.89-65,34.33-63.9,39.07-22.57-28.33,67.57Zm33.21-66.72L926.21,600l40.3-23.27,40.3,23.27Zm-43.3-25L882.9,575l40.31-23.27L963.51,575Zm-43.31-25L839.6,550l40.3-23.27L920.21,550Zm-43.3-25L796.3,525l40.3-23.27L876.9,525Zm-43.3-25L753,500l40.3-23.27L833.6,500Zm-43.3-25L709.7,475,750,451.73,790.3,475ZM747,500l-40.3,23.27L666.4,500l40.3-23.27ZM623.1,525l40.3-23.27L703.7,525l-40.3,23.27Zm37.3,25-40.3,23.27L579.79,550l40.31-23.27ZM536.49,575l40.3-23.27L617.1,575l-40.31,23.27Zm80.61,50-40.31,23.27L536.49,625l40.3-23.27ZM536.51,839.65,588.1,808.2l25.73,29.16L554,870.71Zm80.48,53,55.27-5L627,925.28H571Zm60.54-5.54L733.28,882l-45.12,43.26H631.67Zm60.54-5.53,56.1-5.13-44.83,48.83H692.49Zm73.83,46.7h57.36L822.42,984.1l-56.69-5.19Zm59.81-3H814.4l44.74-54.77,56.55-5.17Zm30.22-119.43L848.07,816l41.85-57.15L940.23,744ZM533.49,623.27,493.19,600l40.3-23.27L573.79,600Zm40.71,27-35.94,30.34-33.67-26.75,29.11-27Zm-35.87,34.23,33.52,26.64L533,741.21l-25.87-29.32ZM574.27,713l33.5,26.63-46.95,33.11L535,743.47Zm-13.93,63.73,25.74,29.16L535,837,517.55,806Zm-26.41,64.44,17.41,30.93-54.9,28-8.79-32Zm20,33,50.24-9.43-48.68,30.5-52.35,4.79Zm-29,82.7,41.81-28.61h56.47L580.67,962Zm60.06,5.5,43-34.11h56.79L641.1,967.52Zm104.34-34.11h57L701.54,973l-56.36-5.15ZM798.61,876,855,870.89l-44.43,54.39H753.41ZM946.52,739l34.08-65.62,45.66-19.16L997,724.17Zm35.8-69.6L1011,601.05l39.53-22.82-22.69,72.11Zm27.49-71.16L969.51,575l40.3-23.27,40.3,23.27Zm-43.3-25L926.21,550l40.3-23.27,40.3,23.27Zm-43.3-25L882.9,525l40.31-23.27L963.51,525Zm-43.31-25L839.6,500l40.3-23.27L920.21,500Zm-43.3-25L796.3,475l40.3-23.27L876.9,475Zm-43.3-25L753,450l40.3-23.27L833.6,450Zm-43.3-25L709.7,425,750,401.73,790.3,425ZM747,450l-40.3,23.27L666.4,450l40.3-23.27ZM623.1,475l40.3-23.27L703.7,475l-40.3,23.27Zm37.3,25-40.3,23.27L579.79,500l40.31-23.27ZM536.49,525l40.3-23.27L617.1,525l-40.31,23.27Zm-3,48.27L493.19,550l40.3-23.27L573.79,550Zm23,324.92,54.59-5-45.22,32.09H510.54Zm25.15,66.9L638,970.24l-41.24,35.35-54.25-10.17Zm123.84,8.31,45.19-45.12h57.22L762,978.57Zm57.72,8.29,56.71,5.19-48.53,51.47L716.7,1028.1Zm62.91,2.74,47.11-56.15h57.47l-47.77,61.34Zm154.14-125,56.81-5.2-42.91,71H936.51Zm-20.1-64.51L905.92,805.1l38.62-62.36,50.63-14.9ZM490.19,551.73,530.49,575l-40.3,23.27L449.89,575Zm12.24,104.2L536,682.57l-30.83,27.07-25.9-29.35Zm2.47,58,25.72,29.14-33.53,26.54L479.6,738.52Zm27.7,31.39,25.74,29.16-42.27,28.86-17.49-31.08Zm-36.72,158.4,53.57-4.89-44.81,26.45H450.47Zm9.57,24.56h56l-41.19,28.18-55.21-5Zm15.6,31.27,56.16,5.14-38.69,30-54-10.14Zm79.44,46.75,41.62-35.68,56.52,5.17-43.72,40.72ZM774.84,1039l48.82-51.79,56.78,5.2-50.89,56.85ZM886.42,990l48-61.67H992l-48.68,66.87Zm166.69-416.68L1012.81,550l40.3-23.27,40.3,23.27Zm-43.3-25L969.51,525l40.3-23.27,40.3,23.27Zm-43.3-25L926.21,500l40.3-23.27,40.3,23.27Zm-43.3-25L882.9,475l40.31-23.27L963.51,475Zm-43.31-25L839.6,450l40.3-23.27L920.21,450Zm-43.3-25L796.3,425l40.3-23.27L876.9,425Zm-43.3-25L753,400l40.3-23.27L833.6,400Zm-43.3-25L709.7,375,750,351.73,790.3,375ZM747,400l-40.3,23.27L666.4,400l40.3-23.27ZM623.1,425l40.3-23.27L703.7,425l-40.3,23.27Zm37.3,25-40.3,23.27L579.79,450l40.31-23.27ZM536.49,475l40.3-23.27L617.1,475l-40.31,23.27Zm-3,48.27L493.19,500l40.3-23.27L573.79,500Zm-3,1.73-40.3,23.27L449.89,525l40.3-23.27Zm-123.9,25,40.3-23.27L487.19,550l-40.3,23.27Zm59.56,73.27-33.76-26.83L447.28,577l40.52,23.39ZM445.31,856.83l30.14-21.93,8.7,31.71-38.84,22.22ZM485,869.6l8.73,31.84-48.39,23V892.29ZM405.44,946l38.7-17.69h55.27l-39.58,22.66Zm74.89,37.79-53.67-10.07L460.51,954l55.85,5.1ZM978.42,856.59l-56.67,5.18L962,797.63l54.47-10.22ZM1018.28,784l-54.42,10.21,35.31-67.56,50.86-15ZM466.59,627.46l33.48,26.6-22.84,24L451.3,648.66Zm10.69,55.16,25.64,29.06-24.85,24.14-17.48-31.07ZM468.44,798l27.8-23.82L513.59,805l-36.38,25ZM442.31,925.81,402,944.25,410.55,913l31.76-19ZM393.07,995l51.1,15-23,18.94-46.37-19.45Zm166.46,45.85,38-32L652.1,1019l-41.48,36.81Zm271.07,11.71,54.69,10.26L828.81,1120l-51.26-15.08ZM946,1071.11l-54.82-10.28,53.5-62.54,56.89,5.2Zm57.79-70.43-57-5.21,48.91-67.19h57.63ZM1024.14,981l23.76-26.92-15.55,70.36-31.57,25.09ZM1052,949.46l24.41-27.67-8.13,74.13-32.2,25.58Zm-13.15-98.4L982,856.26l38.29-69.57,54.62-10.24ZM1055,707.11l24.8-75.32L1126,612.43l-20,79.68Zm71.76-98.27-46.08,19.33,17-77.2,40.08-23.14Zm-30.36-60.57L1056.11,525l40.3-23.27,40.3,23.27Zm-43.3-25L1012.81,500l40.3-23.27,40.3,23.27Zm-43.3-25L969.51,475l40.3-23.27,40.3,23.27Zm-43.3-25L926.21,450l40.3-23.27,40.3,23.27Zm-43.3-25L882.9,425l40.31-23.27L963.51,425Zm-43.31-25L839.6,400l40.3-23.27L920.21,400Zm-43.3-25L796.3,375l40.3-23.27L876.9,375Zm-43.3-25L753,350l40.3-23.27L833.6,350Zm-43.3-25L709.7,325,750,301.73,790.3,325ZM747,350l-40.3,23.27L666.4,350l40.3-23.27ZM623.1,375l40.3-23.27L703.7,375l-40.3,23.27Zm37.3,25-40.3,23.27L579.79,400l40.31-23.27ZM536.49,425l40.3-23.27L617.1,425l-40.31,23.27Zm-3,48.27L493.19,450l40.3-23.27L573.79,450Zm-3,1.73-40.3,23.27L449.89,475l40.3-23.27Zm-123.9,25,40.3-23.27L487.19,500l-40.3,23.27Zm37.3,25-40.3,23.27L363.29,525l40.3-23.27Zm-39.68,27.09,40.45,23.36L430,594.57,396.2,567.69Zm-8.49,19,32.76,26-7.35,17.31L395.3,585.2Zm35.19,28,33.33,26.49-15,20.76L423.33,617Zm8.61,93.5L441,676l16.16,28.71L448,723.42Zm17.14,73.8,8.41,30.66-19.76,20v-31.3Zm9.32,34,8.62,31.41-29.29,21.31V821.33Zm-23.67,58.89v31.28L411.7,908.83,420.17,878Zm-43.89,86.59-30.64,14.29,16.46-29.25,22.5-15.35Zm1.53,2.6,55.4,5.06-33.2,19.31-53.1-10ZM422.73,976l54.21,10.17L447,1007.71l-50.7-14.91Zm24.92,35,51.12,15-28.09,23.65-46.4-19.46Zm54.57,16,51.14,15-33.15,28.37L473.79,1051Zm21.09,44.72,33.48-28.66,51.15,15-38.19,33.1Zm90.7-15,41.82-37.1L710.42,1030l-45.26,41.91Zm157,118.85,58.65-52.29,51.18,15-63.36,56.73Zm117.68-37-20.09,16,6.73-7.21,27.14-26.78-13,17Zm32-36.84,24.66-25.54-20.68,33.82-26.3,20.9Zm159.26-183.93,24.83-28.15-.49,77.63-32.62,25.92Zm52.54-64.07-25,28.36-3.91-38.8,18.14-42.63Zm-772.49-315,1.56-11.43,40.13,23.17-7.79,15.19Zm89.92,112.68,25.42,28.8L459,701.89l-17.43-31Zm-4.52,73.52.74,2.68-.74,4.36Zm-3,130.32-20.74,17.48,8.23-30,12.51-17.46ZM418.41,975.2l-25.9,16.47-50.37-14.81,22.28-11.79Zm-28.86,18.73-17.93,14.23-46.3-19.42,13.16-9.84Zm183.29,98.64,38.52-33.39,51.15,15-43.22,37.82Zm49.53,20.77,43.55-38.11,51.17,15-48.26,42.55Zm152.69-6,51.17,15.05-58.33,52-46.47-19.49Zm190.74-30L994,1017.4l11.66-14.19,3.9-5.69,9.39-10.65L996.43,1053ZM1107.21,965l.5-78.65,25.13-28.47,7.28,81Zm28.36-110.21,25.32-28.7,15.16,84.22-33.12,26.31ZM1099.41,500l40.3-23.27L1180,500l-40.3,23.27Zm37.3-25-40.3,23.27L1056.11,475l40.3-23.27Zm-43.3-25-40.3,23.27L1012.81,450l40.3-23.27Zm-43.3-25-40.3,23.27L969.51,425l40.3-23.27Zm-43.3-25-40.3,23.27L926.21,400l40.3-23.27Zm-43.3-25-40.3,23.27L882.9,375l40.3-23.27Zm-430,48.27L493.19,400l40.3-23.27L573.79,400Zm-43.3,25L449.89,425l40.3-23.27L530.49,425Zm-43.3-21.54L487.19,450l-40.3,23.27L406.59,450Zm-43.3,71.54L363.29,475l40.3-23.27L443.89,475Zm-43.3,25L320,500l40.3-23.27L400.59,500Zm-3.16,17.2,1.87,3.6L352.76,537ZM422.47,637l.49-15.93,24.67,28-7.94,18.58Zm15.87,34.32-1.11,12.91-7.4-26.94-1.13-3.09Zm4,125.53v23.37L432.09,834.5Zm-31.93,87.61,9.54-17-2.43,8.86Zm5.3-1.48L408,911.1,387.56,925l15.7-27.9ZM367.05,946.8l10.05-9.31-14,24.89-18.35,9.7Zm2.44,63.72L359.9,1023,319,999.4l4.1-8.36Zm247.24,103.71-40.1,33.94-40.57-23.42,34.25-30Zm3.11,1.31,46.4,19.46L620,1173.18l-40.56-23.41Zm49.53,20.77,46.39,19.46-52.5,42.42-40.54-23.41Zm99.06,41.56,46.37,19.45-64.93,50.87-40.51-23.39Zm57.58,14.4-33.61,31.52-24.76,14.29Zm28.7-22.81,22.71-18-41.78,47.41-31.83,18.38Zm305.43-347.08L1134.89,851l-11.22-55.11,13.58-32,2.64-8.73Zm-25.5-60.19-54.75,10.27,28.52-77.93,51.17-15ZM920.2,350l-40.3,23.27L839.6,350l40.3-23.27Zm-43.3-25-40.3,23.27L796.3,325l40.3-23.27Zm-43.3-25-40.3,23.27L753,300l40.3-23.27Zm-43.3-25L750,298.27,709.7,275,750,251.73Zm-83.6,1.73L747,300l-40.3,23.27L666.4,300Zm-43.3,25L703.7,325l-40.3,23.27L623.1,325Zm-43.3,25L660.4,350l-40.3,23.27L579.8,350ZM323.52,509.93l-3-6.17,38.17,22-1.49,10.88ZM666,1199.79l52.86-42.7,46.38,19.45-58.71,46.65Zm477.13-259.56,33.18-26.37,5.11,85.3-40.19,23.21Z"/></svg>