<svg id="Layer_1" data-name="Layer 1" xmlns="http://www.w3.org/2000/svg" viewBox="0 0 658.85 299.06"><path fill=" #25ED91" d="M439.23,0c-40,0-77.5,7.29-109.81,20-32.3-12.72-69.8-20-109.8-20C98.33,0,0,67,0,149.53S98.33,299.06,219.62,299.06c40,0,77.5-7.29,109.8-20,32.31,12.72,69.81,20,109.81,20,121.29,0,219.62-66.95,219.62-149.53S560.52,0,439.23,0ZM218.09,216.83l-59.15.09a237.79,237.79,0,0,1-9.25-63.36l68.3-.11Zm-75.94-63.26a246.84,246.84,0,0,0,8.94,63.36L104.9,217A140.42,140.42,0,0,1,88,153.65ZM88,146.13a140.57,140.57,0,0,1,16.71-63.4l46.24-.07a246.43,246.43,0,0,0-8.77,63.39Zm130-.19-68.33.1a238.35,238.35,0,0,1,9-63.39l59.18-.09ZM217.87,75l-56.79.09a158.34,158.34,0,0,1,10.16-23.85c11.1-20.1,25.14-36.62,46.53-39.42Zm-62.72-5.8c-.69,1.92-1.32,3.92-2,5.9l-44.12.07c18.31-29.55,47.43-51.4,81.53-59.76C175.48,27,163.74,45.64,155.15,69.24Zm8.06-52A141.52,141.52,0,0,0,121.59,47a146.06,146.06,0,0,0-21.32,28.26l-55.72.08C74.19,45,119,25.43,163.21,17.21ZM37.66,82.83l58.56-.09a148.24,148.24,0,0,0-15.76,63.41l-69.21.1C12,123.21,22.28,100.65,37.66,82.83Zm-26.4,70.93,69.22-.1a148.1,148.1,0,0,0,16,63.36l-58.52.08C22.42,199.37,12.08,176.81,11.26,153.76Zm33.57,70.85,55.67-.09a142.88,142.88,0,0,0,63.26,57.9C115.71,272.84,76.82,256,44.83,224.61Zm64.47-.1,44.06-.06a169.26,169.26,0,0,0,11.56,27.36C172.28,265.4,180.77,276.29,191,284A133.84,133.84,0,0,1,109.3,224.51Zm53.16,3.27c-.39-1.09-.74-2.24-1.12-3.35l56.76-.08.09,63.18C189.1,282.6,174.72,258.5,162.46,227.78Zm270-11.27-58.93.08a238.24,238.24,0,0,1-9.22-63.3l67.91-.16h.15C432.41,169.66,432.46,200.14,432.48,216.51ZM225.4,82.55l17.46,0,41.69-.06a237.73,237.73,0,0,1,9.25,63.36l-68.31.1c0-7.63,0-19.14,0-30.74C225.43,102.92,225.41,90.56,225.4,82.55Zm130.1,63.18-54.16.08a246.22,246.22,0,0,0-8.94-63.37l26.69,0,19.5,0A140.71,140.71,0,0,1,355.5,145.73Zm-8.44-63.37,58.51-.09c15.5,17.74,25.84,40.3,26.66,63.34l-69.22.11A147.58,147.58,0,0,0,347.06,82.36Zm-51.92,71a147.91,147.91,0,0,0,15.92,63.35l-58.75.09c-15.5-17.74-25.84-40.29-26.66-63.34Zm7.52,0,54.18-.08a246.82,246.82,0,0,0,8.94,63.31l-46.25.07A140.6,140.6,0,0,1,302.66,153.38Zm129.66-42a119.77,119.77,0,0,0-17-29.12l17,0Zm-.05-36.66-23.27,0a167.83,167.83,0,0,0-24.26-22c.3-.58.59-1.19.89-1.77,11.11-20.1,25.15-36.62,46.54-39.41ZM378.6,48.31a214.87,214.87,0,0,0-19.45-11.84A131.34,131.34,0,0,1,405,15.12C394.57,23.06,386,34.32,378.6,48.31Zm-1-31.42a140.15,140.15,0,0,0-25.9,15.73c-2.87-1.41-5.77-2.8-8.74-4.12-1.2-.54-2.47-1-3.69-1.52A281.38,281.38,0,0,1,377.6,16.89ZM315.39,26c31.05,10,60.1,25.63,83.27,48.73L343,74.85a145.81,145.81,0,0,0-30.74-36.94q-3.87-3.33-8-6.36A141.12,141.12,0,0,0,279.73,17,298.53,298.53,0,0,1,315.39,26ZM297,35.6a135.67,135.67,0,0,1,37.17,39.26l-44.07.07a174,174,0,0,0-11.54-27.34v0C271.21,34,262.72,23.09,252.48,15.36A131.25,131.25,0,0,1,297,35.6ZM272.46,52.24a173,173,0,0,1,9.69,22.7L259,75,248.8,75l-23.41,0-.1-63.18C246.81,14.54,262.07,32.25,272.46,52.24Zm-46.9,135.43a116.48,116.48,0,0,0,9.95,19.22c2.17,3.37,4.53,6.67,7.05,9.9l-17,0Zm.05,36.67,23.27,0c.73.82,1.49,1.63,2.24,2.43a168.69,168.69,0,0,0,22,19.6l-.39.72c-10.83,20.32-25.38,37.69-47,40.47Zm28.21,58.9c9.57-7.6,18-18.44,25-31.61.16-.3.33-.59.48-.89a214,214,0,0,0,19.45,11.84l-1.45,1a131.12,131.12,0,0,1-44.4,20.32Zm26.46-1.07a140.68,140.68,0,0,0,24.28-14.53c.54-.4,1.09-.8,1.62-1.21,4,2,8.19,4,12.43,5.64-1,.35-2.05.69-3.07,1A282.3,282.3,0,0,1,280.28,282.17Zm59.36-10.08.12-.06c-3.58-1.21-7.14-2.44-10.59-3.78l-.06,0c-25.82-10-50.33-24.36-69.95-44l55.73-.08c3.77,6.22,10.65,15.42,14.25,20.22a137.88,137.88,0,0,0,16.49,16.73h0a144.55,144.55,0,0,0,32.54,20.93A298.2,298.2,0,0,1,339.64,272.09Zm-16.29-47.9,44.07-.07A174.22,174.22,0,0,0,379,251.48c7.37,13.59,15.85,24.48,26.09,32.22C371.12,275.49,341.68,253.64,323.35,224.19Zm52.36-.08,56.78-.09.1,63.18C402.05,283,385.33,251.06,375.71,224.11Zm270.91-78.83-69.21.11a148.25,148.25,0,0,0-16-63.36L620,82C635.47,99.68,645.8,122.24,646.62,145.28Zm-76.72,7.64a140.54,140.54,0,0,1-16.71,63.4l-46.23.07A246.88,246.88,0,0,0,515.72,153Zm-63.11-70.8L553,82.05a140.42,140.42,0,0,1,16.91,63.35l-54.16.08A246.84,246.84,0,0,0,506.79,82.12Zm106.26-7.68-55.67.08a142.89,142.89,0,0,0-63.26-57.88C542.17,26.21,581.06,43.07,613.05,74.44Zm-64.47.1-44.06.07A168.49,168.49,0,0,0,493,47.24C485.6,33.66,477.11,22.77,466.87,15A133.84,133.84,0,0,1,548.58,74.54Zm-108.89-63c29.09,4.93,43.47,29,55.73,59.75.39,1.09.74,2.24,1.12,3.35l-56.76.08Zm.1,70.7,59.15-.09a237.86,237.86,0,0,1,9.25,63.36l-68.3.11Zm.11,70.9,68.33-.11a238.43,238.43,0,0,1-9.05,63.4l-59.18.08ZM440,224l56.79-.09a158.34,158.34,0,0,1-10.16,23.85c-11.1,20.11-25.14,36.62-46.53,39.42Zm64.68-.1,44.12-.06c-18.31,29.54-47.43,51.39-81.53,59.75C483.49,271.5,497,248.43,504.69,223.91Zm-10,57.94a141.64,141.64,0,0,0,41.61-29.76,145.26,145.26,0,0,0,21.32-28.26l55.72-.08C583.69,254.06,538.84,273.63,494.68,281.85Zm125.54-65.63-58.56.09a148.23,148.23,0,0,0,15.76-63.4l69.22-.11C645.89,175.84,635.61,198.4,620.22,216.22Z"/></svg>
